<?xml version="1.0" encoding="utf-8"?>
<!-- Generator: Adobe Illustrator 19.0.0, SVG Export Plug-In . SVG Version: 6.00 Build 0)  -->
<svg version="1.1" id="la" xmlns="http://www.w3.org/2000/svg" xmlns:xlink="http://www.w3.org/1999/xlink" x="0px" y="0px"
	 viewBox="0 0 638.1 653.2" style="enable-background:new 0 0 638.1 653.2;" xml:space="preserve">
<style type="text/css">
	.bike0{opacity:0.4;fill:#0B6CAF;}
	.bike1{fill:#94AB23;}
	.bike2{fill:none;stroke:#4D4C4C;stroke-width:13;stroke-miterlimit:10;}
	.bike3{fill:#CCCCCC;}
	.bike4{fill:#666767;}
	.bike5{fill:#F5A719;}
	.bike6{opacity:0.35;fill:#F5A719;}
	.bike7{fill:#E9BCA5;}
	.bike8{opacity:0.4;fill:#E9BCA5;}
	.bike9{opacity:0.6;fill:#E9BCA5;}
	.bike10{fill:#994162;}
	.bike11{clip-path:url(#SVGID_2_);fill:#FFFFFF;}
	.bike12{clip-path:url(#SVGID_2_);}
	.bike13{fill:#F4AEBA;}
	.bike14{opacity:0.8;clip-path:url(#SVGID_2_);fill:#E6E6E5;}
	.bike15{opacity:0.4;}
	.bike16{fill:#DABD79;}
	.bike17{fill:#303030;}
	.bike18{fill:url(#SVGID_3_);}
	.bike19{fill:url(#SVGID_4_);}
	.bike20{fill:none;stroke:#C24552;stroke-width:2;stroke-linecap:round;stroke-miterlimit:10;}
	.bike21{fill:#774539;}
	.bike22{fill:#BCA29D;}
	.bike23{opacity:0.5;fill:#BCA29D;}
	.bike24{opacity:0.4;fill:#BCA29D;}
	.bike25{fill:#108250;}
	.bike26{fill:#016436;}
	.bike27{fill:#5CA752;}
	.bike28{fill:#469541;}
	.bike29{fill:#276935;}
	.bike30{fill:#1A843B;}
	.bike31{opacity:0.25;fill:#BCA29D;}
	.bike32{fill:#E6E6E5;}
	.bike33{fill:#DDDCDC;}
	.bike34{fill:#F0EFEF;}
	.bike35{fill:none;stroke:#005E41;stroke-width:3;stroke-miterlimit:10;}
	.bike36{fill:#FADAE8;}
	.bike37{clip-path:url(#SVGID_6_);fill:#FFFFFF;}
	.bike38{clip-path:url(#SVGID_6_);}
	.bike39{opacity:0.8;clip-path:url(#SVGID_6_);fill:#E6E6E5;}
	.bike40{fill:url(#SVGID_7_);}
	.bike41{fill:url(#SVGID_8_);}
	.bike42{fill:#BDAD79;}
	.bike43{opacity:0.7;fill:#BDAD79;}
	.bike44{fill:url(#SVGID_9_);}
	.bike45{fill:url(#SVGID_10_);}
	.bike46{fill:#67371A;}
	.bike47{fill:#793C27;}
	.bike48{opacity:0.7;fill:#E9BCA5;}
	.bike49{opacity:0.5;fill:#CDAE6B;}
	.bike50{fill:#04755C;}
	.bike51{fill:#005A47;}
	.bike52{fill:#D27988;}
	.bike53{fill:#CDAE6B;}
	.bike54{fill:url(#SVGID_11_);}
	.bike55{fill:url(#SVGID_12_);}
</style>
<g>
	<ellipse class="bike0" cx="317.3" cy="628.3" rx="317.3" ry="24.9"/>
	<g id="back">
		<g>
			<path class="bike1" d="M491.7,499.2c38.4-17.6,83.3-72.9,87.2-88.7l2.8,6.2C569.2,449.6,514.5,494.6,491.7,499.2z"/>
			<path class="bike1" d="M489.3,500.2c39.4,15.3,110.3,8.9,124.3,0.7l-2.5,6.3C578.9,521.2,508.6,513.3,489.3,500.2z"/>
			<path class="bike1" d="M487,499.1c16.5,38.9,70.5,85.2,86.2,89.6l-6.3,2.6C534.4,578,491,522.1,487,499.1z"/>
			<path class="bike1" d="M486.1,496.7c-16.4,39-11.9,110-4.1,124.3l-6.3-2.7C462.7,585.7,472.5,515.6,486.1,496.7z"/>
			<path class="bike1" d="M487.3,494.5c-39.3,15.4-87.2,68.1-92,83.7l-2.5-6.4C407.1,539.7,464.2,497.8,487.3,494.5z"/>
			<path class="bike1" d="M489.7,493.7c-38.5-17.4-109.6-15-124.1-7.6l2.8-6.2C401.4,467.7,471.2,479.5,489.7,493.7z"/>
			<path class="bike1" d="M491.9,494.8c-14.3-39.8-65.7-89-81.1-94.3l6.4-2.3C449,413.5,489.2,471.7,491.9,494.8z"/>
			<path class="bike1" d="M492.6,497.3c18.5-38,18-109.2,11-123.8l6.1,3C521,409.7,507.3,479.2,492.6,497.3z"/>
		</g>
		<circle class="bike2" cx="489.4" cy="496.9" r="124.3"/>
		<circle class="bike3" cx="489.4" cy="496.9" r="13.9"/>
		<circle class="bike4" cx="489.4" cy="496.9" r="8"/>
	</g>
	<g>
		<g id="hair">
			<path class="bike5" d="M419.7,57.3c-14.4-0.4-16.4,3.6-13.6,12.4c2.7,8.7-11,0.3-18.5,6.4c-7.6,6.2,2.2,9.4,0.6,12.9
				c-2.4,5.4,2.4,13.1-0.3,18.9c-2.7,5.8-29.1,1.3-34.4,15c-5.3,13.7,15.2,15.4,12.2,24.1c-1.9,5.4-11.3,3.4-11.5,12.5
				c-0.3,10.3,16.6,1.9,19.1,7c3.2,6.6-6.1,14-0.6,18.3c4.4,3.5,16.7-4.8,23.6-1.2c3.3,1.7-2.3,23.2,26.2,37.3
				c28.5,14.1,12.2,27.3,26.6,27c14.4-0.3,6.3-2.9,21.1-6.7c14.8-3.8,19.3,5.9,26.9,3.3c7.3-2.5,6.6-12.2,14.2-14.1
				c10.9-2.7,26,16.3,34.3,9.4c9.8-8.2,7.3-15.6,14.7-18.9c9.6-4.2,21.2,16.8,34.5,11.2c11.2-4.8,6.5-13.6,14.3-18.8
				c7.9-5.3,22.3,1.3,28.9,8.2c-2.4-8.3-6.5-4.7-10.3-11.4c-3.5-6.1-2.7-8.5-5.9-11c-8.7-6.7-19.9,7.5-23.9-0.2
				c-5.2-9.8,14.2-15.6,6.6-21.9c-10.1-8.4-27.6,8.5-29.9-1.8c-2.3-10.4,15.6-8.3,8.4-21.1c-4.9-8.7-26.9-25.5-26.9-25.5L419.7,57.3
				z"/>
			<path class="bike6" d="M565.5,200.2c-9.7-4.9-7.5-18.7-12.8-26.2c-5.4-7.5-16.3,0.7-28,1.4c-11.6,0.6,2.1-17.1-4.4-27.1
				c12.2,5.2,47.8-5.6,47.8-5.6l-37.6-27.4l-54-28.3l-54.6,66.2c-0.8,8.7-24.6,6.4-22.5,15.9c2.1,9.5,12.5,15.1,5.2,20.5l47.3,35.5
				c14.4-5,24.2-5.2,31.7-1.6s11.6-6.8,26.9-9.1c15.3-2.2,15.4,9.7,27.4,5.3C549.7,215.4,550.1,196.9,565.5,200.2z"/>
		</g>
		<g>
			<path class="bike7" d="M455.4,191.8c23.5-2.7,74-14.6,80.7-48.6c0.8,0.9,2.4,4.4,2.4,4.4c0.7-2.4,4.2-6.7,4.2-6.7
				c1.2,1.9,1.9,6.4,1.9,6.4c1.7-1.7,3-4.4,2.6-5.3c4.2,8.1-6.1,46.7-35.3,64.4c-29.2,17.7-59.9,10.9-59.9,10.9L455.4,191.8z"/>
			<path class="bike8" d="M544.6,147.3c0,0-0.7-4.5-1.9-6.4c0,0-3.5,4.2-4.2,6.7c0,0-1.6-3.5-2.4-4.4c-6.2,31.3-49.6,43.9-74.8,47.8
				c33.4,10.2,55.6,5.7,71.4-4.2c13.1-18.1,17.4-39,14.4-44.7C547.6,142.9,546.3,145.6,544.6,147.3z"/>
		</g>
		<g>
			<path class="bike7" d="M411.3,181.3c-32.2-2.5-85.8,33.4-60.4,87.1c7.7,16.2,29.2,16.3,29.2,16.3c-17.6-23.3-9.6-73.6,30.6-68
				L411.3,181.3z"/>
			<path class="bike9" d="M411.3,181.3c-32.2-2.5-85.8,33.4-60.4,87.1c7.7,16.2,29.2,16.3,29.2,16.3c-17.6-23.3-9.6-73.6,30.6-68
				L411.3,181.3z"/>
		</g>
		<g>
			<g>
				<path class="bike7" d="M545.6,275l-23.2,46l2,41.7c6.2-2.7,13.1-5.5,20.8-8.8C590.7,334.8,591.6,290.3,545.6,275z"/>
				<path class="bike8" d="M545.6,275l-23.2,46l2,41.7c6.2-2.7,13.1-5.5,20.8-8.8C590.7,334.8,591.6,290.3,545.6,275z"/>
				<path class="bike8" d="M545.6,275l-11.2,22.2l4.3,21.4l5.7-2.2c9.9-7.7,9.6-27.2,13.5-36C554.2,278.3,550.1,276.5,545.6,275z"/>
			</g>
			<path class="bike7" d="M532.5,303.8c35.1,15.6,35.2,54.6-10.3,73.7c-45.5,19-63.4,25.7-57.5,47.8c-7.6-7.6-13.2-11.4-19.2-17.9
				c4.6-6.6,14.3-13.9,13.2-16.2c-1.1-2.3-12.3,3.8-14.6,6.6c14.8-26.7,36.9-38.5,50.1-43.1L532.5,303.8z"/>
			<path class="bike8" d="M481.8,360.2c32.3-0.5,58.8-30,68.5-43.4c-4.2-5.1-10.2-9.6-17.7-13l-38.2,50.8
				C490.7,355.8,486.4,357.7,481.8,360.2z"/>
			<path class="bike10" d="M444.2,397.7c2.3-2.8,13.5-8.9,14.6-6.6c1.1,2.3-8.7,9.6-13.2,16.2c6,6.5,11.6,10.3,19.2,17.9
				c-1.7-6.3-1.4-11.4,0.8-15.8c-6.5-5.6,6.2-23.2-2.8-35.7C456.1,379.9,449.7,387.8,444.2,397.7z"/>
		</g>
		<g>
			<defs>
				<path id="SVGID_1_" d="M452.2,191.5c1.1-0.1,2.2-0.2,3.2,0.3c-2,23.3,10.1,70.3,49.8,71.6c39.6,1.3,44.8-8.4,44.8-8.4
					c-5.6,12.5,7.2,46.5-22.7,73.7c-29.8,27.2-38.8,31.4-53.1,28.6c-6.5-10-7-31.9-17.2-36.3s-38.7,5.7-50.8-18.9
					c-12-24.6-5.9-80.9,5-120.8c0.9-0.1,3.2,0.2,3.2,0.2l16.5,10.8l10.7,2.9L452.2,191.5z"/>
			</defs>
			<clipPath id="SVGID_2_">
				<use xlink:href="#SVGID_1_"  style="overflow:visible;"/>
			</clipPath>
			<path class="bike11" d="M452.2,191.5c1.1-0.1,2.2-0.2,3.2,0.3c-2,23.3,10.1,70.3,49.8,71.6c39.6,1.3,44.8-8.4,44.8-8.4
				c-5.6,12.5,7.2,46.5-22.7,73.7c-29.8,27.2-38.8,31.4-53.1,28.6c-6.5-10-7-31.9-17.2-36.3s-38.7,5.7-50.8-18.9
				c-12-24.6-5.9-80.9,5-120.8c0.9-0.1,3.2,0.2,3.2,0.2l16.5,10.8l10.7,2.9L452.2,191.5z"/>
			<g class="bike12">
				<path class="bike13" d="M451.6,214c0.1-8,14.9-7.5,2.6,9.1C438.9,217.5,444.4,203.6,451.6,214z"/>
				<path class="bike13" d="M425.7,232c0.1-8,14.9-7.5,2.6,9.1C412.9,235.5,418.4,221.6,425.7,232z"/>
				<path class="bike13" d="M430.5,273c0.1-8,14.9-7.5,2.6,9.1C417.8,276.5,423.3,262.6,430.5,273z"/>
				<path class="bike13" d="M410.3,305.1c0.1-8,14.9-7.5,2.6,9.1C397.6,308.7,403.1,294.7,410.3,305.1z"/>
				<path class="bike13" d="M451.8,245.6c0.1-8,14.9-7.5,2.6,9.1C439.1,249.1,444.6,235.2,451.8,245.6z"/>
				<path class="bike13" d="M458.5,285.5c0.1-8,14.9-7.5,2.6,9.1C445.7,289,451.3,275.1,458.5,285.5z"/>
				<path class="bike13" d="M481.9,258.7c0.1-8,14.9-7.5,2.6,9.1C469.2,262.2,474.7,248.3,481.9,258.7z"/>
				<path class="bike13" d="M516.6,271c0.1-8,14.9-7.5,2.6,9.1C503.8,274.6,509.3,260.6,516.6,271z"/>
				<path class="bike13" d="M492.2,296.5c0.1-8,14.9-7.5,2.6,9.1C479.4,300.1,484.9,286.1,492.2,296.5z"/>
				<path class="bike13" d="M527.9,308.8c0.1-8,14.9-7.5,2.6,9.1C515.2,312.3,520.7,298.4,527.9,308.8z"/>
				<path class="bike13" d="M510.5,336.4c0.1-8,14.9-7.5,2.6,9.1C497.8,339.9,503.3,326,510.5,336.4z"/>
				<path class="bike13" d="M477.1,335c0.1-8,14.9-7.5,2.6,9.1C464.3,338.6,469.8,324.6,477.1,335z"/>
				<path class="bike13" d="M441.5,313.1c0.1-8,14.9-7.5,2.6,9.1C428.8,316.6,434.3,302.6,441.5,313.1z"/>
				<path class="bike13" d="M400.5,254.8c0.1-8,14.9-7.5,2.6,9.1C387.7,258.3,393.2,244.4,400.5,254.8z"/>
				<path class="bike13" d="M410.8,206.1c0.1-8,14.9-7.5,2.6,9.1C398,209.6,403.5,195.7,410.8,206.1z"/>
				<path class="bike13" d="M551.2,282.8c0.1-8,14.9-7.5,2.6,9.1C538.4,286.4,543.9,272.4,551.2,282.8z"/>
			</g>
			<path class="bike14" d="M469.7,304.2c-17.1-20.9-60.6-6.2-69.1-62.4c-2,24.3-0.9,47,5.7,60.4c12,24.6,40.5,14.5,50.8,18.9
				s10.8,26.3,17.2,36.3c6.9,1.4,12.6,1.1,20.1-2.7C481.9,345,485.9,323.9,469.7,304.2z"/>
		</g>
		<g>
			<g>
				<path class="bike7" d="M413.7,149.7c-2.2,7.6,0.2,18.3,13.4,23.2c-0.3,3.7-2,7.8-4.2,8.7c-3,1.2-8.5-0.1-8.5-0.1
					c-1.1,10.9,6.7,25.1,19.7,25.2c12.9,0.1,17.5-9.8,18.2-15.1c-4.8,0.7-9,0.1-9,0.1c0.5-4.5,3.9-8.1,3.9-8.1
					c13.6,6.5,47.2,14.9,55.7,7.6s-5.3-30.5,16.3-62.2L451,85l-35.5,17.1l-0.5,18.3l-11.9,11.7L413.7,149.7z"/>
				<g class="bike15">
					<path class="bike7" d="M415.5,102.1l-0.5,18.3l-11.9,11.7l10.6,17.6c-2.1,7.2,0,17.3,11.7,22.5c-6-4.6-10.8-10.5-10.5-17.5
						c0.7-18.1,10.2-10.1,15.1-20.5c4.9-10.4-5.4-16.2-1.1-21.9c4.3-5.7,15.8,1.4,29.1-6.1c0,0,21.4,17.6,56.6,30.3
						c1.3-2.5,2.9-5.1,4.7-7.7L451,85L415.5,102.1z"/>
					<path class="bike7" d="M422.9,181.6c-1.3,0.5-3.1,0.6-4.8,0.5l0,0c6.9,0.8,16.6,14.2,25.1,9.5c0.5-4.5,3.9-8.1,3.9-8.1
						s-11-3.5-20.2-10C426.6,177,425,180.7,422.9,181.6z"/>
				</g>
			</g>
			<g>
				<path class="bike5" d="M458.5,93.9c1.4,11.1-8.7,17-26.3,15.5c-17.7-1.5-6.6,11.1-2.6,13.7c4.1,2.6,5.4,14.6-9.8,10.1
					c-15.2-4.5-10.8,9.2-7.1,12.5c3.7,3.3,1.7,12.4-10.7,10.3c-12.4-2.1-8.5,6-8.5,6c-6.8-8.6,1.8-12.1,6.2-14.4
					c5.7-3-9.8-13.3-3.8-24.2c4.5-8.1,13.4-3.8,15.6-6.9c4.6-6.4-16.5-20.7,3.8-35.1c9.9-7.1,22.6,4.9,26.5-6.9L458.5,93.9z"/>
				<path class="bike6" d="M458.5,93.9c1.4,11.1-8.7,17-26.3,15.5c-17.7-1.5-6.6,11.1-2.6,13.7c4.1,2.6,5.4,14.6-9.8,10.1
					c-15.2-4.5-10.8,9.2-7.1,12.5c3.7,3.3,1.7,12.4-10.7,10.3c-12.4-2.1-8.5,6-8.5,6c-6.8-8.6,1.8-12.1,6.2-14.4
					c5.7-3-9.8-13.3-3.8-24.2c4.5-8.1,13.4-3.8,15.6-6.9c4.6-6.4-16.5-20.7,3.8-35.1c9.9-7.1,22.6,4.9,26.5-6.9L458.5,93.9z"/>
			</g>
			<g>
				<path class="bike16" d="M523.3,89.6c28.8,16.3,134.1,52.9,106.8,64.3c-27.3,11.5-136.5-23.3-181.8-64.4
					c-45.3-41.2-55.5-46.1-35-43.4c20.5,2.6,37.9,14.8,37.9,14.8L523.3,89.6z"/>
				<path class="bike16" d="M439,61.1c25.1,21.2,63.9,35.2,86.5,37.1c12.6-27,1.5-53.7-27.3-64.1C469.3,23.8,442.8,47.5,439,61.1z"/>
				<path class="bike17" d="M530.6,79.1c-30.6-3.9-67.1-18.9-79.1-34.9c-6.5,5.5-11,11.9-12.4,16.9c25.1,21.2,63.9,35.2,86.5,37.1
					C528.5,91.7,530.2,85.3,530.6,79.1z"/>
			</g>
			
				<radialGradient id="SVGID_3_" cx="510.577" cy="40.9153" r="12.2531" gradientTransform="matrix(0.8219 0.2851 -0.2071 0.5741 32.9504 -26.5185)" gradientUnits="userSpaceOnUse">
				<stop  offset="0" style="bikeop-color:#C24552;stop-opacity:0.4"/>
				<stop  offset="1" style="bikeop-color:#C24552;stop-opacity:0"/>
			</radialGradient>
			<path class="bike18" d="M452.3,149c-1,2.7-6,3.2-11,1.3c-5.1-1.9-8.4-5.7-7.4-8.3c1-2.7,5.9-3.2,11-1.3
				C450,142.7,453.3,146.4,452.3,149z"/>
			
				<radialGradient id="SVGID_4_" cx="561.9465" cy="21.707" r="12.2531" gradientTransform="matrix(0.8219 0.2851 -0.2071 0.5741 31.3372 -13.1785)" gradientUnits="userSpaceOnUse">
				<stop  offset="0" style="bikeop-color:#C24552;stop-opacity:0.4"/>
				<stop  offset="1" style="bikeop-color:#C24552;stop-opacity:0"/>
			</radialGradient>
			<path class="bike19" d="M496.9,166c-1,2.7-6,3.2-11,1.3c-5.1-1.9-8.4-5.7-7.4-8.3c1-2.7,5.9-3.2,11-1.3
				C494.6,159.6,497.9,163.3,496.9,166z"/>
			<path class="bike20" d="M461.6,156.6c-9,9.7,4.7,22.8,11.8,6.6"/>
			<path class="bike5" d="M446.6,119.6c8.1-9.8,19-6.2,18.8,0.8C462.8,117.3,455.5,114.5,446.6,119.6z"/>
			<path class="bike5" d="M501.6,141.3c1.2-10.1-9.1-14.6-13-8.8C492.4,131.4,498.6,133.4,501.6,141.3z"/>
			<g>
				<path class="bike17" d="M484.7,151.9c3.9,1.8,6.6-4.9,5.2-6.6c-1.4-1.7-4.3-0.2-5.6,1.8C483.1,149.1,483.8,151.5,484.7,151.9z"/>
				<path class="bike17" d="M492.8,147.7c0.2,1.6,5.2,1.1,5.2,0.1C498,146.9,492.4,144.9,492.8,147.7z"/>
				<path class="bike17" d="M491.3,151.5c0,2.1,7.9,3.1,8,1.9C499.4,152.3,491.2,147.9,491.3,151.5z"/>
			</g>
			<g>
				<path class="bike17" d="M448.6,136.7c3.9,1.8,6.6-4.9,5.2-6.6c-1.4-1.7-4.3-0.2-5.6,1.8C447,133.9,447.7,136.3,448.6,136.7z"/>
				<path class="bike17" d="M447.8,128.2c-1.4,0.7-3.9-3.6-3.2-4.1S450.3,126.9,447.8,128.2z"/>
				<path class="bike17" d="M445.9,132.2c-1.6,1.3-7.6-3.8-6.8-4.7C440,126.6,448.7,129.8,445.9,132.2z"/>
			</g>
		</g>
	</g>
	<g>
		<g>
			<path class="bike21" d="M282.4,493.7c-6.9,11.6-35.8,14-50.9,29.3c15.6,6,45.7,12.3,57.4,10.8c11.2-16.7,12.8-36.2,12.8-36.2
				L282.4,493.7z"/>
			<path class="bike22" d="M333.9,308.3c-11.3,62-52.1,158.3-58.2,189.3c10,4.2,29.4,3.1,29.4,3.1c45.5-81.9,98.4-174.5,89.5-209.8
				L333.9,308.3z"/>
			<path class="bike23" d="M333.9,308.3c-11.3,62-52.1,158.3-58.2,189.3c10,4.2,29.4,3.1,29.4,3.1c45.5-81.9,98.4-174.5,89.5-209.8
				L333.9,308.3z"/>
			<path class="bike24" d="M394.6,290.9l-9.2,2.7l-27.1,15.7c0,0-10,91.3-71.6,190.8c9.1,1.1,18.4,0.5,18.4,0.5
				C350.6,418.7,403.6,326.2,394.6,290.9z"/>
		</g>
		<polygon class="bike25" points="260.2,531.6 305.1,500.6 309.8,507.4 264.2,535 		"/>
		<path class="bike17" d="M246.3,527.5c-1.1,4.4-0.8,9.2-0.8,9.2c10.6,3.7,20.2,5.2,30.4,4.1c1.5-4.1,1.6-9.1,1.6-9.1L246.3,527.5z"/>
		<g id="front">
			<g>
				<path class="bike1" d="M136.2,497.4c38.4-17.6,83.3-72.9,87.2-88.7l2.8,6.2C213.7,447.8,159,492.8,136.2,497.4z"/>
				<path class="bike1" d="M133.8,498.4c39.4,15.3,110.3,8.9,124.3,0.7l-2.5,6.3C223.4,519.4,153.1,511.5,133.8,498.4z"/>
				<path class="bike1" d="M131.5,497.3c16.5,38.9,70.5,85.2,86.2,89.6l-6.3,2.6C178.9,576.2,135.5,520.3,131.5,497.3z"/>
				<path class="bike1" d="M130.7,494.9c-16.4,39-11.9,110-4.1,124.3l-6.3-2.7C107.2,583.9,117,513.8,130.7,494.9z"/>
				<path class="bike1" d="M131.8,492.7c-39.3,15.4-87.2,68.1-92,83.7l-2.5-6.4C51.6,537.9,108.7,496,131.8,492.7z"/>
				<path class="bike1" d="M134.2,491.9c-38.5-17.4-109.6-15-124.1-7.6l2.8-6.2C45.9,465.9,115.7,477.7,134.2,491.9z"/>
				<path class="bike1" d="M136.4,493c-14.3-39.8-65.7-89-81.1-94.3l6.4-2.3C93.5,411.7,133.7,469.9,136.4,493z"/>
				<path class="bike1" d="M137.2,495.5c18.5-38,18-109.2,11-123.8l6.1,3C165.5,407.9,151.8,477.4,137.2,495.5z"/>
			</g>
			<circle class="bike2" cx="133.9" cy="495.1" r="124.3"/>
		</g>
		<path class="bike25" d="M169.2,252.4c-9.7,17.9-37.2,238.1-37.2,238.1l9.6,2.4c20.1-103.6,37.7-223.6,37.7-223.6L169.2,252.4z"/>
		<circle class="bike3" cx="133.9" cy="495.1" r="13.9"/>
		<circle class="bike4" cx="133.9" cy="495.1" r="8"/>
		<path class="bike26" d="M166.1,354.1c-0.3,2-0.7,4-1,6.1c78.5,30.4,100.4,63.8,136.2,140.7l7.8-7.7
			C284.4,410.7,216.9,369,166.1,354.1z"/>
		<path class="bike25" d="M170.3,308.1c23.8,50,171.9,130.5,180,133.7l-2,6.1c-116.1-49.8-171.6-114.1-181.6-127L170.3,308.1z"/>
		<path class="bike25" d="M331.7,433.7c42.8-17.5,79.3-67.8,82.4-104.8l31.7,6.2l-18.9,10.4c-12.2,47.1-66.4,88.7-90.3,93.2
			L331.7,433.7z"/>
		<path class="bike27" d="M350.3,441.9c88.5,43.9,157.1,15.7,156.9,53.9c-0.2,41.5-146.1,54.3-193.4,19.1L350.3,441.9z"/>
		<path class="bike26" d="M488.2,508.1c12.5-6.6,14.2-16.6,9.7-20.9c-4-3.8-8.8,0.5-8.3,3.4c0.8-6-13.1-6.6-11.1,5.5
			C479.8,503.7,488.2,508.1,488.2,508.1z"/>
		<circle class="bike28" cx="336.8" cy="480.8" r="41"/>
		<path class="bike17" d="M309.1,492.8c2.6,3.8,6.4,6.6,6.4,6.6c9.8-5.5,17.2-11.8,23.1-20.2c-2-3.8-5.8-7.2-5.8-7.2L309.1,492.8z"/>
		<path class="bike29" d="M355,341.6c-1.5-6,16.1-22.3,52.6-28.1c36.6-5.8,56.5,9.3,59.3,26.2c2.8,16.8-11.9,29.3-26.5,26.2
			c-14.6-3.1-21.1-25.5-2.5-29.3c-6.9-7.3-41.7-2.9-65.1,5.7C360.1,346.9,356,345.8,355,341.6z"/>
		<g>
			<path class="bike30" d="M-1453.7-2133.3c0,0-0.5,0-1.1,0.4c-0.6,0.4-1.4,1.5-1.4,2.9c0,0.7,0.1,1.5,0.6,2.2
				c0.5,0.7,1.3,1.2,2.2,1.4c1.9,0.4,4.4,0.2,6.2-1.3c0.9-0.7,1.6-1.8,1.9-2.9c0.3-1.2,0.2-2.5-0.2-3.8c-0.4-1.3-1-2.6-2-3.6
				c-0.9-1-2.2-1.8-3.6-2.2c-2.8-0.9-6.1-0.5-8.7,1.2c-0.2,0.1-0.3,0.2-0.5,0.3c0,0-0.1,0.1-0.1,0.1l-0.1,0.1l-0.2,0.2
				c-0.2,0.1-0.3,0.3-0.5,0.4l-0.4,0.4c-0.5,0.5-1,1.1-1.5,1.8c-0.8,1.3-1.4,2.8-1.6,4.4c-0.5,3.2,0.1,6.5,1.6,9.3
				c1.4,2.9,3.7,5.2,6.4,6.7c1.3,0.7,2.8,1.2,4.2,1.6c0.4,0.1,0.7,0.1,1.1,0.2c0.4,0,0.8,0.1,1.1,0.1c0.7,0.1,1.4,0.1,2.2,0.1
				c2.9,0.1,5.6-0.2,8-0.9c2.4-0.7,4.5-1.7,6.2-2.8c1.7-1.1,3-2.4,4-3.5c1-1.1,1.6-2.1,2-2.8c0.4-0.7,0.5-1.1,0.5-1.1
				s-0.1,0.4-0.4,1.2c-0.3,0.7-0.9,1.8-1.8,3c-0.9,1.2-2.2,2.5-3.9,3.8c-1.7,1.3-3.8,2.5-6.3,3.3c-2.5,0.8-5.3,1.3-8.4,1.3
				c-0.8,0-1.5,0-2.3-0.1c-0.4,0-0.8-0.1-1.1-0.1c-0.4,0-0.8-0.1-1.2-0.2c-1.6-0.3-3.2-0.8-4.7-1.6c-3-1.5-5.6-4.1-7.2-7.3
				c-1.7-3.1-2.4-6.9-1.8-10.5c0.3-1.8,0.9-3.6,1.9-5.2c0.5-0.8,1.1-1.5,1.8-2.2l0.5-0.5c0.2-0.1,0.3-0.3,0.5-0.4l0.3-0.2l0.1-0.1
				l0.2-0.1c0.2-0.1,0.4-0.3,0.6-0.4c3.1-1.9,7-2.4,10.3-1.2c1.7,0.6,3.2,1.5,4.3,2.8c1.1,1.3,1.8,2.8,2.2,4.4
				c0.4,1.5,0.5,3.2,0,4.6c-0.4,1.5-1.4,2.7-2.6,3.5c-1.2,0.8-2.4,1.2-3.7,1.4c-1.2,0.1-2.4,0-3.5-0.3c-1.1-0.3-2-1-2.5-1.8
				c-0.5-0.8-0.6-1.8-0.6-2.5c0.2-1.6,1.1-2.6,1.8-3C-1454.2-2133.4-1453.7-2133.3-1453.7-2133.3z"/>
		</g>
		<g>
			<path class="bike21" d="M306.1,443c4.8,12.6-11.4,36.7-8.9,58.1c14.4-8.5,38.1-28.1,44.3-38.1c-6.1-19.2-20.3-32.6-20.3-32.6
				L306.1,443z"/>
			<path class="bike22" d="M329.9,295.3c-57,21-92.6,43-64.5,93.9c28.1,50.9,39.8,56.8,39.8,56.8c7-1.2,17.2-9.2,19.9-14.5
				c-18.4-27-25.7-48.6-27.5-63.4c12.5-26.1,92.1-33,99.3-74l-63.9-3.1L329.9,295.3z"/>
			<path class="bike31" d="M332,292.5c21.2-0.5,33.5,34.3,6,49.2c25.8-11.3,54.7-23.6,58.9-47.6l-63.9-3.1L332,292.5z"/>
			<path class="bike24" d="M325.1,431.6c-18.4-27-25.7-48.6-27.5-63.4c12.5-26.1,92.1-33,99.3-74l-28.9-1.4
				c-7.3,22.4-85.2,30.2-93.8,58.6c-8.2,27.4,21.5,68.2,40.6,90.3C319.4,438.6,323.5,434.6,325.1,431.6z"/>
		</g>
		<path class="bike26" d="M221.1,241.3c-30.4-7-56.8,0.4-52.7,21.9c3.3,17.5,23.3,27.9,54.5,24.9l0.7-15.8
			c-25.5,1.3-39.5-1.4-37.3-14.7c2.1-12.7,33.9-4,37.2-6C230.3,247.4,226.5,241.1,221.1,241.3z"/>
		<path class="bike1" d="M186.3,262.8c-0.4-1.5-0.4-3.2-0.1-5.2c0.3-2,1.4-3.5,3.1-4.6c-3.2-5.8-11.6-7.8-17.8-4.6
			c-3,3.8-4.3,8.7-3.2,14.7c0.8,4.5,2.8,8.5,5.7,11.9C170.9,267.1,180.3,262.1,186.3,262.8z"/>
		<g>
			<g>
				<path class="bike7" d="M285.1,201c-14.5,7-49.3,33.5-55.4,34.5c-6.1,1-21.7-7.2-27.7,6.1c-6,13.3,14.8,14.7,20.8,1.6
					c3.1,0.4,3.5,5,1.9,7.8c3,3,10.4,1.7,13.8-0.7c3.4-2.3,46.3-14.7,57-37.1L285.1,201z"/>
				<path class="bike8" d="M285.1,201c-14.5,7-49.3,33.5-55.4,34.5c-6.1,1-21.7-7.2-27.7,6.1c-6,13.3,14.8,14.7,20.8,1.6
					c3.1,0.4,3.5,5,1.9,7.8c3,3,10.4,1.7,13.8-0.7c3.4-2.3,46.3-14.7,57-37.1L285.1,201z"/>
				<path class="bike8" d="M225.4,249.2c-0.2,0.7-0.4,1.3-0.7,1.8c3,3,10.4,1.7,13.8-0.7c3.4-2.3,46.3-14.7,57-37.1l-9.7-11.4
					l-4.3,1.2C288.3,227.5,242.2,251.5,225.4,249.2z"/>
			</g>
			<path class="bike3" d="M355.6,173.9c-12.6-16.6-38.7,1.5-74.9,26.9c4.5,13,12.5,24.2,14.7,27.2
				C325.6,215.8,367.7,189.8,355.6,173.9z"/>
			<path class="bike32" d="M355.6,173.9c-7.7-10.1-20.4-7.3-37.4,2.2c-0.4,7.2-2.6,22.8-13.1,32.3l20.5,4.6
				C346.9,200.3,363.8,184.8,355.6,173.9z"/>
			<path class="bike1" d="M302.6,224.9c2.8-1.3,5.7-2.6,8.5-4c-4.5-11-8.8-25.1-12.6-32.5c-2.7,1.8-5.5,3.8-8.4,5.8
				C292.5,203.9,298.9,217.6,302.6,224.9z"/>
		</g>
		<path class="bike33" d="M350.2,169.2c23.7,11.4,54.9,71.5,51.6,125.8c-29.6,8.7-38-8.6-72,0.3c-3.5-25.1,8.2-34.5-5.9-76.3l0.8-28.1
			c-0.5-9.4,3.4-14.1,3.4-14.1l19.3-9.6L350.2,169.2z"/>
		<path class="bike3" d="M350.2,169.2l-2.1-1.5l-3,3.2c21.7,4.3,14.8,20,29,50.5c14.2,30.6,9.2,59.6-39.3,72.7l0,0
			c29.9-6,39,9.1,67,0.9C405.1,240.7,373.9,180.5,350.2,169.2z"/>
		<g>
			<path class="bike7" d="M286,220.2c-23.4,14.7-48.5,38.5-58.7,41.2c-10.2,2.7-19-6.4-27.1,14.5c-9,23.2,26,24,26.2,6.8
				c6.6,1.2,32.2-11.1,51.6-23.3c19.3-12.2,25.4-22.8,25.4-22.8L286,220.2z"/>
			<path class="bike8" d="M301.2,239.9l-8.2-7.3c5.5,19.4-44.8,40.5-58.8,40.4l1.7,7.9c11-3.8,28.3-12.6,42.2-21.4
				C290.9,251.3,297.9,243.9,301.2,239.9z"/>
			<path class="bike34" d="M286,220.2c35.4-31.5,60.7-55.1,75.8-39.5c15.1,15.7-32.1,50.6-60.8,64.5
				C295.4,239.8,287.7,227.3,286,220.2z"/>
			<path class="bike1" d="M315.2,237.6c2.6-1.6,5.3-3.3,8-5c-5.7-10.4-11.6-23.9-16.3-30.8c-2.5,2.2-5.1,4.4-7.7,6.7
				C302.7,217.9,310.7,230.7,315.2,237.6z"/>
			<path class="bike3" d="M358.2,177.8c10.5,11.6-29.3,49.3-61.9,61.8c1.6,2.2,3.3,4.2,4.8,5.6c28.7-13.9,75.9-48.8,60.8-64.5
				C360.7,179.5,359.5,178.6,358.2,177.8z"/>
		</g>
		<path class="bike26" d="M232.5,273.1c7.1-1.2,12.6,7.1,5.2,17.7c-7.4,10.6-15.6,3.7-14-6.2C225.4,274.7,229.4,273.7,232.5,273.1z"/>
		<g id="flower">
			<path class="bike35" d="M399.7,32.6c6.6-9.1,18-10.5,23.8-10.9"/>
			<path class="bike36" d="M447.3,16.5c0.5-3.3-5.2-5-11-4.8c1.4-5.6,0.9-11.5-2.4-11.7c-6.6-0.4-9.9,5.1-10.6,10.7
				c-5.1-3-14.6-4.2-15.7,2c-1.1,5.9,4.2,8.5,10.3,9.4c-3.2,4.6-4.5,10.9,0.7,15.1c2.4,1.9,6.2-1.3,8.9-5.8
				c2.7,3.4,6.7,5.6,11.5,3.7c2.9-1.1,2-6-0.6-10.6C442.6,24,446.5,21.7,447.3,16.5z"/>
			<circle class="bike5" cx="428.2" cy="20" r="5.3"/>
		</g>
		<g>
			<ellipse class="bike0" cx="551.3" cy="1577.3" rx="317.3" ry="24.9"/>
			<g>
				<g>
					<path class="bike1" d="M725.7,1448.2c38.4-17.6,83.3-72.9,87.2-88.7l2.8,6.2C803.2,1398.6,748.5,1443.6,725.7,1448.2z"/>
					<path class="bike1" d="M723.3,1449.2c39.4,15.3,110.3,8.9,124.3,0.7l-2.5,6.3C812.9,1470.2,742.6,1462.3,723.3,1449.2z"/>
					<path class="bike1" d="M721,1448.1c16.5,38.9,70.5,85.2,86.2,89.6l-6.3,2.6C768.4,1527,725,1471.1,721,1448.1z"/>
					<path class="bike1" d="M720.1,1445.7c-16.4,39-11.9,110-4.1,124.3l-6.3-2.7C696.7,1534.7,706.5,1464.6,720.1,1445.7z"/>
					<path class="bike1" d="M721.3,1443.5c-39.3,15.4-87.2,68.1-92,83.7l-2.5-6.4C641.1,1488.7,698.2,1446.8,721.3,1443.5z"/>
					<path class="bike1" d="M723.7,1442.7c-38.5-17.4-109.6-15-124.1-7.6l2.8-6.2C635.4,1416.7,705.2,1428.5,723.7,1442.7z"/>
					<path class="bike1" d="M725.9,1443.8c-14.3-39.8-65.7-89-81.1-94.3l6.4-2.3C683,1362.5,723.2,1420.7,725.9,1443.8z"/>
					<path class="bike1" d="M726.6,1446.3c18.5-38,18-109.2,11-123.8l6.1,3C755,1358.7,741.3,1428.2,726.6,1446.3z"/>
				</g>
				<circle class="bike2" cx="723.4" cy="1445.9" r="124.3"/>
				<circle class="bike3" cx="723.4" cy="1445.9" r="13.9"/>
				<circle class="bike4" cx="723.4" cy="1445.9" r="8"/>
			</g>
			<g>
				<path class="bike5" d="M653.7,1006.3c-14.4-0.4-16.3,3.6-13.6,12.4c2.7,8.7-11,0.3-18.5,6.4s2.2,9.4,0.6,12.9
					c-2.4,5.4,2.4,13.1-0.3,18.9c-2.7,5.8-29.1,1.3-34.4,15c-5.3,13.7,15.2,15.4,12.2,24.1c-1.9,5.4-11.3,3.4-11.5,12.5
					c-0.3,10.3,16.6,1.9,19.1,7c3.2,6.6-6.1,14-0.6,18.3c4.4,3.5,16.7-4.8,23.6-1.2c3.3,1.7-2.3,23.2,26.2,37.3
					c28.5,14.1,12.2,27.3,26.6,27c14.4-0.3,6.3-2.9,21.1-6.7c14.8-3.8,19.3,5.9,26.9,3.3c7.3-2.5,6.6-12.2,14.2-14.1
					c10.9-2.7,26,16.3,34.3,9.4c9.8-8.2,7.3-15.6,14.7-18.9c9.6-4.2,21.2,16.8,34.5,11.2c11.2-4.8,6.5-13.6,14.3-18.8
					c7.9-5.3,22.3,1.3,28.9,8.2c-2.4-8.3-6.5-4.7-10.3-11.4c-3.5-6.1-2.7-8.5-5.9-11c-8.7-6.7-19.9,7.5-23.9-0.2
					c-5.2-9.8,14.2-15.6,6.6-21.9c-10.1-8.4-27.6,8.5-29.9-1.8c-2.3-10.4,15.6-8.3,8.4-21.1c-4.9-8.7-26.9-25.5-26.9-25.5
					L653.7,1006.3z"/>
				<path class="bike6" d="M799.5,1149.2c-9.7-4.9-7.5-18.7-12.8-26.2c-5.4-7.5-16.3,0.7-28,1.4c-11.6,0.6,2.1-17.1-4.4-27.1
					c12.2,5.2,47.8-5.6,47.8-5.6l-37.6-27.4l-54-28.3l-54.6,66.2c-0.8,8.7-24.6,6.4-22.5,15.9c2.1,9.5,12.5,15.1,5.2,20.5l47.3,35.5
					c14.4-5,24.2-5.2,31.7-1.6c7.5,3.7,11.6-6.8,26.9-9.1c15.3-2.2,15.4,9.7,27.4,5.3C783.7,1164.4,784.1,1145.9,799.5,1149.2z"/>
				<g>
					<path class="bike7" d="M689.4,1140.8c23.5-2.7,74-14.6,80.7-48.6c0.8,0.9,2.4,4.4,2.4,4.4c0.7-2.4,4.2-6.7,4.2-6.7
						c1.2,1.9,1.9,6.4,1.9,6.4c1.7-1.7,3-4.4,2.6-5.3c4.2,8.1-6.1,46.7-35.3,64.4c-29.2,17.7-59.9,10.9-59.9,10.9L689.4,1140.8z"/>
					<path class="bike8" d="M778.6,1096.3c0,0-0.7-4.5-1.9-6.4c0,0-3.5,4.2-4.2,6.7c0,0-1.6-3.5-2.4-4.4
						c-6.2,31.3-49.6,43.9-74.8,47.8c33.4,10.2,55.6,5.7,71.4-4.2c13.1-18.1,17.4-39,14.4-44.7
						C781.6,1091.9,780.3,1094.6,778.6,1096.3z"/>
				</g>
				<g>
					<path class="bike7" d="M645.3,1130.3c-32.2-2.5-85.8,33.4-60.4,87.1c7.7,16.2,29.2,16.3,29.2,16.3c-17.6-23.3-9.6-73.6,30.6-68
						L645.3,1130.3z"/>
					<path class="bike9" d="M645.3,1130.3c-32.2-2.5-85.8,33.4-60.4,87.1c7.7,16.2,29.2,16.3,29.2,16.3c-17.6-23.3-9.6-73.6,30.6-68
						L645.3,1130.3z"/>
				</g>
				<g>
					<g>
						<path class="bike7" d="M779.6,1224l-23.2,46l2,41.7c6.2-2.7,13.1-5.5,20.8-8.8C824.7,1283.8,825.6,1239.3,779.6,1224z"/>
						<path class="bike8" d="M779.6,1224l-23.2,46l2,41.7c6.2-2.7,13.1-5.5,20.8-8.8C824.7,1283.8,825.6,1239.3,779.6,1224z"/>
						<path class="bike8" d="M779.6,1224l-11.2,22.2l4.3,21.4l5.7-2.2c9.9-7.7,9.6-27.2,13.5-36C788.2,1227.3,784.1,1225.5,779.6,1224
							z"/>
					</g>
					<path class="bike7" d="M766.5,1252.8c35.1,15.6,35.2,54.6-10.3,73.7c-45.5,19-63.4,25.7-57.5,47.8c-7.6-7.6-13.2-11.4-19.2-17.9
						c4.6-6.6,14.3-13.9,13.2-16.2c-1.1-2.3-12.3,3.8-14.6,6.6c14.8-26.7,36.9-38.5,50.1-43.1L766.5,1252.8z"/>
					<path class="bike8" d="M715.8,1309.2c32.3-0.5,58.8-30,68.5-43.4c-4.2-5.1-10.2-9.6-17.7-13l-38.2,50.8
						C724.7,1304.8,720.4,1306.7,715.8,1309.2z"/>
					<path class="bike10" d="M678.2,1346.7c2.3-2.8,13.5-8.9,14.6-6.6c1.1,2.3-8.7,9.6-13.2,16.2c6,6.5,11.6,10.3,19.2,17.9
						c-1.7-6.3-1.4-11.4,0.8-15.8c-6.5-5.6,6.2-23.2-2.8-35.7C690.1,1328.9,683.7,1336.8,678.2,1346.7z"/>
				</g>
				<g>
					<defs>
						<path id="SVGID_5_" d="M686.2,1140.5c1.1-0.1,2.2-0.2,3.2,0.3c-2,23.3,10.1,70.3,49.8,71.6c39.6,1.3,44.8-8.4,44.8-8.4
							c-5.6,12.5,7.2,46.5-22.7,73.7c-29.8,27.2-38.8,31.4-53.1,28.6c-6.5-10-7-31.9-17.2-36.3c-10.2-4.4-38.7,5.7-50.8-18.9
							c-12-24.6-5.9-80.9,5-120.8c0.9-0.1,3.2,0.2,3.2,0.2l16.5,10.8l10.7,2.9L686.2,1140.5z"/>
					</defs>
					<clipPath id="SVGID_6_">
						<use xlink:href="#SVGID_5_"  style="overflow:visible;"/>
					</clipPath>
					<path class="bike37" d="M686.2,1140.5c1.1-0.1,2.2-0.2,3.2,0.3c-2,23.3,10.1,70.3,49.8,71.6c39.6,1.3,44.8-8.4,44.8-8.4
						c-5.6,12.5,7.2,46.5-22.7,73.7c-29.8,27.2-38.8,31.4-53.1,28.6c-6.5-10-7-31.9-17.2-36.3c-10.2-4.4-38.7,5.7-50.8-18.9
						c-12-24.6-5.9-80.9,5-120.8c0.9-0.1,3.2,0.2,3.2,0.2l16.5,10.8l10.7,2.9L686.2,1140.5z"/>
					<g class="bike38">
						<path class="bike13" d="M685.6,1163c0.1-8,14.9-7.5,2.6,9.1C672.9,1166.5,678.4,1152.6,685.6,1163z"/>
						<path class="bike13" d="M659.7,1181c0.1-8,14.9-7.5,2.6,9.1C646.9,1184.5,652.4,1170.6,659.7,1181z"/>
						<path class="bike13" d="M664.5,1222c0.1-8,14.9-7.5,2.6,9.1C651.8,1225.5,657.3,1211.6,664.5,1222z"/>
						<path class="bike13" d="M644.3,1254.1c0.1-8,14.9-7.5,2.6,9.1C631.6,1257.7,637.1,1243.7,644.3,1254.1z"/>
						<path class="bike13" d="M685.8,1194.6c0.1-8,14.9-7.5,2.6,9.1C673.1,1198.1,678.6,1184.2,685.8,1194.6z"/>
						<path class="bike13" d="M692.5,1234.5c0.1-8,14.9-7.5,2.6,9.1C679.7,1238,685.3,1224.1,692.5,1234.5z"/>
						<path class="bike13" d="M715.9,1207.7c0.1-8,14.9-7.5,2.6,9.1C703.2,1211.2,708.7,1197.3,715.9,1207.7z"/>
						<path class="bike13" d="M750.6,1220c0.1-8,14.9-7.5,2.6,9.1C737.8,1223.6,743.3,1209.6,750.6,1220z"/>
						<path class="bike13" d="M726.2,1245.5c0.1-8,14.9-7.5,2.6,9.1C713.4,1249.1,718.9,1235.1,726.2,1245.5z"/>
						<path class="bike13" d="M761.9,1257.8c0.1-8,14.9-7.5,2.6,9.1C749.2,1261.3,754.7,1247.4,761.9,1257.8z"/>
						<path class="bike13" d="M744.5,1285.4c0.1-8,14.9-7.5,2.6,9.1C731.8,1288.9,737.3,1275,744.5,1285.4z"/>
						<path class="bike13" d="M711.1,1284c0.1-8,14.9-7.5,2.6,9.1C698.3,1287.6,703.8,1273.6,711.1,1284z"/>
						<path class="bike13" d="M675.5,1262.1c0.1-8,14.9-7.5,2.6,9.1C662.8,1265.6,668.3,1251.6,675.5,1262.1z"/>
						<path class="bike13" d="M634.5,1203.8c0.1-8,14.9-7.5,2.6,9.1C621.7,1207.3,627.2,1193.4,634.5,1203.8z"/>
						<path class="bike13" d="M644.8,1155.1c0.1-8,14.9-7.5,2.6,9.1C632,1158.6,637.5,1144.7,644.8,1155.1z"/>
						<path class="bike13" d="M785.2,1231.8c0.1-8,14.9-7.5,2.6,9.1C772.4,1235.4,777.9,1221.4,785.2,1231.8z"/>
					</g>
					<path class="bike39" d="M703.7,1253.2c-17.1-20.9-60.6-6.2-69.1-62.4c-2,24.3-0.9,47,5.7,60.4c12,24.6,40.5,14.5,50.8,18.9
						c10.2,4.4,10.8,26.3,17.2,36.3c6.9,1.4,12.6,1.1,20.1-2.7C715.9,1294,719.9,1272.9,703.7,1253.2z"/>
				</g>
				<g>
					<g>
						<path class="bike7" d="M647.7,1098.7c-2.2,7.6,0.2,18.3,13.4,23.2c-0.3,3.7-2,7.8-4.2,8.7c-3,1.2-8.5-0.1-8.5-0.1
							c-1.1,10.9,6.7,25.1,19.7,25.2s17.5-9.8,18.2-15.1c-4.8,0.7-9,0.1-9,0.1c0.5-4.5,3.9-8.1,3.9-8.1c13.6,6.5,47.2,14.9,55.7,7.6
							c8.6-7.3-5.3-30.5,16.3-62.2L685,1034l-35.5,17.1l-0.5,18.3l-11.9,11.7L647.7,1098.7z"/>
						<g class="bike15">
							<path class="bike7" d="M649.5,1051.1l-0.5,18.3l-11.9,11.7l10.6,17.6c-2.1,7.2,0,17.3,11.7,22.5c-6-4.6-10.8-10.5-10.5-17.5
								c0.7-18.1,10.2-10.1,15.1-20.5c4.9-10.4-5.4-16.2-1.1-21.9c4.3-5.7,15.8,1.4,29.1-6.1c0,0,21.4,17.6,56.6,30.3
								c1.3-2.5,2.9-5.1,4.7-7.7L685,1034L649.5,1051.1z"/>
							<path class="bike7" d="M656.9,1130.6c-1.3,0.5-3.1,0.6-4.8,0.5l0,0c6.9,0.8,16.6,14.2,25.1,9.5c0.5-4.5,3.9-8.1,3.9-8.1
								s-11-3.5-20.2-10C660.6,1126,659,1129.7,656.9,1130.6z"/>
						</g>
					</g>
					<g>
						<path class="bike5" d="M692.5,1042.9c1.4,11.1-8.7,17-26.3,15.5c-17.7-1.5-6.6,11.1-2.6,13.7c4.1,2.6,5.4,14.6-9.8,10.1
							c-15.2-4.5-10.8,9.2-7.1,12.5c3.7,3.3,1.7,12.4-10.7,10.3c-12.4-2.1-8.5,6-8.5,6c-6.8-8.6,1.8-12.1,6.2-14.4
							c5.7-3-9.8-13.3-3.8-24.2c4.5-8.1,13.4-3.8,15.6-6.9c4.6-6.4-16.5-20.7,3.8-35.1c9.9-7.1,22.6,4.9,26.5-6.9L692.5,1042.9z"/>
						<path class="bike6" d="M692.5,1042.9c1.4,11.1-8.7,17-26.3,15.5c-17.7-1.5-6.6,11.1-2.6,13.7c4.1,2.6,5.4,14.6-9.8,10.1
							c-15.2-4.5-10.8,9.2-7.1,12.5c3.7,3.3,1.7,12.4-10.7,10.3c-12.4-2.1-8.5,6-8.5,6c-6.8-8.6,1.8-12.1,6.2-14.4
							c5.7-3-9.8-13.3-3.8-24.2c4.5-8.1,13.4-3.8,15.6-6.9c4.6-6.4-16.5-20.7,3.8-35.1c9.9-7.1,22.6,4.9,26.5-6.9L692.5,1042.9z"/>
					</g>
					<g>
						<path class="bike16" d="M757.3,1038.6c28.8,16.3,134.1,52.9,106.8,64.3c-27.3,11.5-136.5-23.3-181.8-64.4
							c-45.3-41.2-55.5-46.1-35-43.4c20.5,2.6,37.9,14.8,37.9,14.8L757.3,1038.6z"/>
						<path class="bike16" d="M673,1010.1c25.1,21.2,63.9,35.2,86.5,37.1c12.6-27,1.5-53.7-27.3-64.1
							C703.3,972.8,676.8,996.5,673,1010.1z"/>
						<path class="bike17" d="M764.6,1028.1c-30.6-3.9-67.1-18.9-79.1-34.9c-6.5,5.5-11,11.9-12.4,16.9c25.1,21.2,63.9,35.2,86.5,37.1
							C762.5,1040.7,764.2,1034.3,764.6,1028.1z"/>
					</g>
					
						<radialGradient id="SVGID_7_" cx="1355.6598" cy="475.7849" r="12.2531" gradientTransform="matrix(0.8219 0.2851 -0.2071 0.5741 -337.5357 431.8428)" gradientUnits="userSpaceOnUse">
						<stop  offset="0" style="bikeop-color:#C24552;stop-opacity:0.4"/>
						<stop  offset="1" style="bikeop-color:#C24552;stop-opacity:0"/>
					</radialGradient>
					<path class="bike40" d="M686.3,1098c-1,2.7-6,3.2-11,1.3s-8.4-5.7-7.4-8.3s6-3.2,11-1.3C684,1091.7,687.3,1095.4,686.3,1098z"/>
					
						<radialGradient id="SVGID_8_" cx="1407.0293" cy="456.5765" r="12.2531" gradientTransform="matrix(0.8219 0.2851 -0.2071 0.5741 -339.1489 445.1827)" gradientUnits="userSpaceOnUse">
						<stop  offset="0" style="bikeop-color:#C24552;stop-opacity:0.4"/>
						<stop  offset="1" style="bikeop-color:#C24552;stop-opacity:0"/>
					</radialGradient>
					<path class="bike41" d="M730.9,1115c-1,2.7-5.9,3.2-11,1.3c-5.1-1.9-8.4-5.7-7.4-8.3c1-2.7,6-3.2,11-1.3
						C728.6,1108.6,731.9,1112.3,730.9,1115z"/>
					<path class="bike20" d="M695.6,1105.6c-9,9.7,4.7,22.8,11.8,6.6"/>
					<path class="bike5" d="M680.6,1068.6c8.1-9.8,19-6.2,18.8,0.8C696.8,1066.3,689.5,1063.5,680.6,1068.6z"/>
					<path class="bike5" d="M735.6,1090.3c1.2-10.1-9.1-14.6-13-8.8C726.4,1080.4,732.6,1082.4,735.6,1090.3z"/>
					<g>
						<path class="bike17" d="M718.7,1100.9c3.9,1.8,6.6-4.9,5.2-6.6c-1.4-1.7-4.3-0.2-5.6,1.8
							C717.1,1098.1,717.8,1100.5,718.7,1100.9z"/>
						<path class="bike17" d="M726.8,1096.7c0.2,1.6,5.2,1.1,5.2,0.1C732,1095.9,726.4,1093.9,726.8,1096.7z"/>
						<path class="bike17" d="M725.3,1100.5c0,2.1,7.9,3.1,8,1.9S725.2,1096.9,725.3,1100.5z"/>
					</g>
					<g>
						<path class="bike17" d="M682.6,1085.7c3.9,1.8,6.6-4.9,5.2-6.6c-1.4-1.7-4.3-0.2-5.6,1.8C681,1082.9,681.7,1085.3,682.6,1085.7z
							"/>
						<path class="bike17" d="M681.8,1077.2c-1.4,0.7-3.9-3.6-3.2-4.1S684.3,1075.9,681.8,1077.2z"/>
						<path class="bike17" d="M679.9,1081.2c-1.6,1.3-7.6-3.8-6.8-4.7C674,1075.6,682.7,1078.8,679.9,1081.2z"/>
					</g>
				</g>
			</g>
			<g>
				<g>
					<path class="bike21" d="M516.4,1442.7c-6.9,11.6-35.8,14-50.9,29.3c15.6,6,45.7,12.3,57.4,10.8c11.2-16.7,12.8-36.2,12.8-36.2
						L516.4,1442.7z"/>
					<path class="bike22" d="M567.9,1257.3c-11.3,62-52.1,158.3-58.2,189.3c10,4.2,29.4,3.1,29.4,3.1c45.5-81.9,98.4-174.5,89.5-209.8
						L567.9,1257.3z"/>
					<path class="bike23" d="M567.9,1257.3c-11.3,62-52.1,158.3-58.2,189.3c10,4.2,29.4,3.1,29.4,3.1c45.5-81.9,98.4-174.5,89.5-209.8
						L567.9,1257.3z"/>
					<path class="bike24" d="M628.6,1239.9l-9.2,2.7l-27.1,15.7c0,0-10,91.3-71.6,190.8c9.1,1.1,18.4,0.5,18.4,0.5
						C584.6,1367.7,637.6,1275.2,628.6,1239.9z"/>
				</g>
				<polygon class="bike25" points="494.2,1480.6 539.1,1449.6 543.8,1456.4 498.2,1484 				"/>
				<path class="bike17" d="M480.3,1476.5c-1.1,4.4-0.8,9.2-0.8,9.2c10.6,3.7,20.2,5.2,30.4,4.1c1.5-4.1,1.6-9.1,1.6-9.1L480.3,1476.5
					z"/>
				<g>
					<g>
						<path class="bike1" d="M370.2,1446.4c38.4-17.6,83.3-72.9,87.2-88.7l2.8,6.2C447.7,1396.8,393,1441.8,370.2,1446.4z"/>
						<path class="bike1" d="M367.8,1447.4c39.4,15.3,110.3,8.9,124.3,0.7l-2.5,6.3C457.4,1468.4,387.1,1460.5,367.8,1447.4z"/>
						<path class="bike1" d="M365.5,1446.3c16.5,38.9,70.5,85.2,86.2,89.6l-6.3,2.6C412.9,1525.2,369.5,1469.3,365.5,1446.3z"/>
						<path class="bike1" d="M364.7,1443.9c-16.4,39-11.9,110-4.1,124.3l-6.3-2.7C341.2,1532.9,351,1462.8,364.7,1443.9z"/>
						<path class="bike1" d="M365.8,1441.7c-39.3,15.4-87.2,68.1-92,83.7l-2.5-6.4C285.6,1486.9,342.7,1445,365.8,1441.7z"/>
						<path class="bike1" d="M368.2,1440.9c-38.5-17.4-109.6-15-124.1-7.6l2.8-6.2C279.9,1414.9,349.7,1426.7,368.2,1440.9z"/>
						<path class="bike1" d="M370.4,1442c-14.3-39.8-65.7-89-81.1-94.3l6.4-2.3C327.5,1360.7,367.7,1418.9,370.4,1442z"/>
						<path class="bike1" d="M371.2,1444.5c18.5-38,18-109.2,11-123.8l6.1,3C399.5,1356.9,385.8,1426.4,371.2,1444.5z"/>
					</g>
					<circle class="bike2" cx="367.9" cy="1444.1" r="124.3"/>
					<path class="bike25" d="M403.2,1201.4c-9.7,17.9-37.2,238.1-37.2,238.1l9.6,2.4c20.1-103.6,37.7-223.6,37.7-223.6L403.2,1201.4z"
						/>
					<circle class="bike3" cx="367.9" cy="1444.1" r="13.9"/>
					<circle class="bike4" cx="367.9" cy="1444.1" r="8"/>
				</g>
				<path class="bike26" d="M400.1,1303.1c-0.3,2-0.7,4-1,6.1c78.5,30.4,100.4,63.8,136.2,140.7l7.8-7.7
					C518.4,1359.7,450.9,1318,400.1,1303.1z"/>
				<path class="bike25" d="M404.3,1257.1c23.8,50,171.9,130.5,180,133.7l-2,6.1c-116.1-49.8-171.6-114.1-181.6-127L404.3,1257.1z"/>
				<path class="bike25" d="M565.7,1382.7c42.8-17.5,79.3-67.8,82.4-104.8l31.7,6.2l-18.9,10.4c-12.2,47.1-66.4,88.7-90.3,93.2
					L565.7,1382.7z"/>
				<path class="bike27" d="M584.3,1390.9c88.5,43.9,157.1,15.7,156.9,53.9c-0.2,41.5-146.1,54.3-193.4,19.1L584.3,1390.9z"/>
				<path class="bike26" d="M722.2,1457.1c12.5-6.6,14.2-16.6,9.7-20.9c-4-3.8-8.8,0.5-8.3,3.4c0.8-6-13.1-6.6-11.1,5.5
					C713.8,1452.7,722.2,1457.1,722.2,1457.1z"/>
				<circle class="bike28" cx="570.8" cy="1429.8" r="41"/>
				<path class="bike17" d="M543.1,1441.8c2.6,3.8,6.4,6.6,6.4,6.6c9.8-5.5,17.2-11.8,23.1-20.2c-2-3.8-5.8-7.2-5.8-7.2L543.1,1441.8z
					"/>
				<path class="bike29" d="M589,1290.6c-1.5-6,16.1-22.3,52.6-28.1c36.6-5.8,56.5,9.3,59.3,26.2s-11.9,29.3-26.5,26.2
					c-14.6-3.1-21.1-25.5-2.5-29.3c-6.9-7.3-41.7-2.9-65.1,5.7C594.1,1295.9,590,1294.8,589,1290.6z"/>
				<g>
					<path class="bike30" d="M-1219.7-1184.3c0,0-0.5,0-1.1,0.4c-0.6,0.4-1.4,1.5-1.4,2.9c0,0.7,0.1,1.5,0.6,2.2
						c0.5,0.7,1.3,1.2,2.2,1.4c1.9,0.4,4.4,0.2,6.2-1.3c0.9-0.7,1.6-1.8,1.9-2.9c0.3-1.2,0.2-2.5-0.2-3.8c-0.4-1.3-1-2.6-2-3.6
						c-0.9-1-2.2-1.8-3.6-2.2c-2.8-0.9-6.1-0.5-8.7,1.2c-0.2,0.1-0.3,0.2-0.5,0.3c0,0-0.1,0.1-0.1,0.1l-0.1,0.1l-0.2,0.2
						c-0.2,0.1-0.3,0.3-0.5,0.4l-0.4,0.4c-0.5,0.5-1,1.1-1.5,1.8c-0.8,1.3-1.4,2.8-1.6,4.4c-0.5,3.2,0.1,6.5,1.6,9.3
						c1.4,2.9,3.7,5.2,6.4,6.7c1.3,0.7,2.8,1.2,4.2,1.6c0.4,0.1,0.7,0.1,1.1,0.2c0.4,0,0.8,0.1,1.1,0.1c0.7,0.1,1.4,0.1,2.2,0.1
						c2.9,0.1,5.6-0.2,8-0.9c2.4-0.7,4.5-1.7,6.2-2.8c1.7-1.1,3-2.4,4-3.5c1-1.1,1.6-2.1,2-2.8c0.4-0.7,0.5-1.1,0.5-1.1
						s-0.1,0.4-0.4,1.2c-0.3,0.7-0.9,1.8-1.8,3c-0.9,1.2-2.2,2.5-3.9,3.8c-1.7,1.3-3.8,2.5-6.3,3.3c-2.5,0.8-5.3,1.3-8.4,1.3
						c-0.8,0-1.5,0-2.3-0.1c-0.4,0-0.8-0.1-1.1-0.1c-0.4,0-0.8-0.1-1.2-0.2c-1.6-0.3-3.2-0.8-4.7-1.6c-3-1.5-5.6-4.1-7.2-7.3
						c-1.7-3.1-2.4-6.9-1.8-10.5c0.3-1.8,0.9-3.6,1.9-5.2c0.5-0.8,1.1-1.5,1.8-2.2l0.5-0.5c0.2-0.1,0.3-0.3,0.5-0.4l0.3-0.2l0.1-0.1
						l0.2-0.1c0.2-0.1,0.4-0.3,0.6-0.4c3.1-1.9,7-2.4,10.3-1.2c1.7,0.6,3.2,1.5,4.3,2.8c1.1,1.3,1.8,2.8,2.2,4.4
						c0.4,1.5,0.5,3.2,0,4.6c-0.4,1.5-1.4,2.7-2.6,3.5c-1.2,0.8-2.4,1.2-3.7,1.4c-1.2,0.1-2.4,0-3.5-0.3c-1.1-0.3-2-1-2.5-1.8
						c-0.5-0.8-0.6-1.8-0.6-2.5c0.2-1.6,1.1-2.6,1.8-3C-1220.2-1184.4-1219.7-1184.3-1219.7-1184.3z"/>
				</g>
				<g>
					<path class="bike21" d="M540.1,1392c4.8,12.6-11.4,36.7-8.9,58.1c14.4-8.5,38.1-28.1,44.3-38.1c-6.1-19.2-20.3-32.6-20.3-32.6
						L540.1,1392z"/>
					<path class="bike22" d="M563.9,1244.3c-57,21-92.6,43-64.5,93.9c28.1,50.9,39.8,56.8,39.8,56.8c7-1.2,17.2-9.2,19.9-14.5
						c-18.4-27-25.7-48.6-27.5-63.4c12.5-26.1,92.1-33,99.3-74l-63.9-3.1L563.9,1244.3z"/>
					<path class="bike31" d="M566,1241.5c21.2-0.5,33.5,34.3,6,49.2c25.8-11.3,54.7-23.6,58.9-47.6l-63.9-3.1L566,1241.5z"/>
					<path class="bike24" d="M559.1,1380.6c-18.4-27-25.7-48.6-27.5-63.4c12.5-26.1,92.1-33,99.3-74l-28.9-1.4
						c-7.3,22.4-85.2,30.2-93.8,58.6c-8.2,27.4,21.5,68.2,40.6,90.3C553.4,1387.6,557.5,1383.6,559.1,1380.6z"/>
				</g>
				<path class="bike26" d="M455.1,1190.3c-30.4-7-56.8,0.4-52.7,21.9c3.3,17.5,23.3,27.9,54.5,24.9l0.7-15.8
					c-25.5,1.3-39.5-1.4-37.3-14.7c2.1-12.7,33.9-4,37.2-6C464.3,1196.4,460.5,1190.1,455.1,1190.3z"/>
				<path class="bike1" d="M420.3,1211.8c-0.4-1.5-0.4-3.2-0.1-5.2c0.3-2,1.4-3.5,3.1-4.6c-3.2-5.8-11.6-7.8-17.8-4.6
					c-3,3.8-4.3,8.7-3.2,14.7c0.8,4.5,2.8,8.5,5.7,11.9C404.9,1216.1,414.3,1211.1,420.3,1211.8z"/>
				<g>
					<g>
						<path class="bike7" d="M519.1,1150c-14.5,7-49.3,33.5-55.4,34.5c-6.1,1-21.7-7.2-27.7,6.1c-6,13.3,14.8,14.7,20.8,1.6
							c3.1,0.4,3.5,5,1.9,7.8c3,3,10.4,1.7,13.8-0.7c3.4-2.3,46.3-14.7,57-37.1L519.1,1150z"/>
						<path class="bike8" d="M519.1,1150c-14.5,7-49.3,33.5-55.4,34.5c-6.1,1-21.7-7.2-27.7,6.1c-6,13.3,14.8,14.7,20.8,1.6
							c3.1,0.4,3.5,5,1.9,7.8c3,3,10.4,1.7,13.8-0.7c3.4-2.3,46.3-14.7,57-37.1L519.1,1150z"/>
						<path class="bike8" d="M459.4,1198.2c-0.2,0.7-0.4,1.3-0.7,1.8c3,3,10.4,1.7,13.8-0.7c3.4-2.3,46.3-14.7,57-37.1l-9.7-11.4
							l-4.3,1.2C522.3,1176.5,476.2,1200.5,459.4,1198.2z"/>
					</g>
					<path class="bike3" d="M589.6,1122.9c-12.6-16.6-38.7,1.5-74.9,26.9c4.5,13,12.5,24.2,14.7,27.2
						C559.6,1164.8,601.7,1138.8,589.6,1122.9z"/>
					<path class="bike32" d="M589.6,1122.9c-7.7-10.1-20.4-7.3-37.4,2.2c-0.4,7.2-2.6,22.8-13.1,32.3l20.5,4.6
						C580.9,1149.3,597.8,1133.8,589.6,1122.9z"/>
					<path class="bike1" d="M536.6,1173.9c2.8-1.3,5.7-2.6,8.5-4c-4.5-11-8.8-25.1-12.6-32.5c-2.7,1.8-5.5,3.8-8.4,5.8
						C526.5,1152.9,532.9,1166.6,536.6,1173.9z"/>
				</g>
				<path class="bike33" d="M584.2,1118.2c23.7,11.4,54.9,71.5,51.6,125.8c-29.6,8.7-38-8.6-72,0.3c-3.5-25.1,8.2-34.5-5.9-76.3
					l0.8-28.1c-0.5-9.4,3.4-14.1,3.4-14.1l19.3-9.6L584.2,1118.2z"/>
				<path class="bike3" d="M584.2,1118.2l-2.1-1.5l-3,3.2c21.7,4.3,14.8,20,29,50.5c14.2,30.6,9.2,59.6-39.3,72.7l0,0
					c29.9-6,39,9.1,67,0.9C639.1,1189.7,607.9,1129.5,584.2,1118.2z"/>
				<g>
					<path class="bike7" d="M520,1169.2c-23.4,14.7-48.5,38.5-58.7,41.2c-10.2,2.7-19-6.4-27.1,14.5c-9,23.2,26,24,26.2,6.8
						c6.6,1.2,32.2-11.1,51.6-23.3c19.3-12.2,25.4-22.8,25.4-22.8L520,1169.2z"/>
					<path class="bike8" d="M535.2,1188.9l-8.2-7.3c5.5,19.4-44.8,40.5-58.8,40.4l1.7,7.9c11-3.8,28.3-12.6,42.2-21.4
						C524.9,1200.3,531.9,1192.9,535.2,1188.9z"/>
					<path class="bike34" d="M520,1169.2c35.4-31.5,60.7-55.1,75.8-39.5c15.1,15.7-32.1,50.6-60.8,64.5
						C529.4,1188.8,521.7,1176.3,520,1169.2z"/>
					<path class="bike1" d="M549.2,1186.6c2.6-1.6,5.3-3.3,8-5c-5.7-10.4-11.6-23.9-16.3-30.8c-2.5,2.2-5.1,4.4-7.7,6.7
						C536.7,1166.9,544.7,1179.7,549.2,1186.6z"/>
					<path class="bike3" d="M592.2,1126.8c10.5,11.6-29.3,49.3-61.9,61.8c1.6,2.2,3.3,4.2,4.8,5.6c28.7-13.9,75.9-48.8,60.8-64.5
						C594.7,1128.5,593.5,1127.6,592.2,1126.8z"/>
				</g>
				<path class="bike26" d="M466.5,1222.1c7.1-1.2,12.6,7.1,5.2,17.7c-7.4,10.6-15.6,3.7-14-6.2
					C459.4,1223.7,463.4,1222.7,466.5,1222.1z"/>
				<g>
					<path class="bike35" d="M633.7,981.6c6.6-9.1,18-10.5,23.8-10.9"/>
					<path class="bike36" d="M681.3,965.5c0.5-3.3-5.2-5-11-4.8c1.4-5.6,0.9-11.5-2.4-11.7c-6.6-0.4-9.9,5.1-10.6,10.7
						c-5.1-3-14.6-4.2-15.7,2c-1.1,5.9,4.2,8.5,10.3,9.4c-3.2,4.6-4.5,10.9,0.7,15.1c2.4,1.9,6.2-1.3,8.9-5.8
						c2.7,3.4,6.7,5.6,11.5,3.7c2.9-1.1,2-6-0.6-10.6C676.6,973,680.5,970.7,681.3,965.5z"/>
					<circle class="bike5" cx="662.2" cy="969" r="5.3"/>
				</g>
				<g>
					<g>
						<path class="bike42" d="M517.6,976.1c-2.2-5.8-7.7-13.4-12.7-12.8c-9.5,2.2,0.6,20.2,10.7,24.6c10.1,4.4,10.8,15.6,10.8,15.6
							l5.7-10C523.7,985.3,518.5,978.6,517.6,976.1z"/>
						<path class="bike43" d="M517.6,976.1c-2.2-5.8-7.7-13.4-12.7-12.8c-9.5,2.2,0.6,20.2,10.7,24.6c10.1,4.4,10.8,15.6,10.8,15.6
							l5.7-10C523.7,985.3,518.5,978.6,517.6,976.1z"/>
					</g>
					<path class="bike7" d="M526.4,982.4c-14.3,39.2-46.3,69.6-39.4,88.6c10,27.6,61.3,38.2,72.3,37.3c2.6,8.2,2.9,17.5,2.9,17.5
						c6,1.8,18.3-8.1,22-7.7c-2.5-6.1-2.7-28.3-2.7-28.3l25.4-26.7l11.2-33L526.4,982.4z"/>
					<path class="bike8" d="M579.1,1119.9c2.2-1.1,4-1.8,5.1-1.7c-2-5-2.6-20.9-2.7-26.4c-4.9,3.5-10.7,6.4-17.5,8.3
						c-13.5,3.9-30.7,1.9-45.1-1.3c16.6,7.1,34.4,10,40.3,9.5C567.5,1108.6,578.4,1111.4,579.1,1119.9z"/>
					
						<radialGradient id="SVGID_9_" cx="1192.3273" cy="676.9883" r="12.2529" gradientTransform="matrix(0.9424 0.3343 -0.1786 0.5034 -451.0251 328.0821)" gradientUnits="userSpaceOnUse">
						<stop  offset="0" style="bikeop-color:#C24552;stop-opacity:0.4"/>
						<stop  offset="1" style="bikeop-color:#C24552;stop-opacity:0"/>
					</radialGradient>
					<path class="bike44" d="M561.5,1074.1c-0.9,2.3-6.3,2.4-12.2,0.2c-5.8-2.2-9.9-5.9-9-8.2c0.9-2.3,6.3-2.4,12.2-0.2
						C558.4,1068.1,562.4,1071.8,561.5,1074.1z"/>
					
						<radialGradient id="SVGID_10_" cx="1149.6573" cy="688.8442" r="12.2528" gradientTransform="matrix(0.9424 0.3343 -0.1786 0.5034 -448.5674 317.1095)" gradientUnits="userSpaceOnUse">
						<stop  offset="0" style="bikeop-color:#C24552;stop-opacity:0.4"/>
						<stop  offset="1" style="bikeop-color:#C24552;stop-opacity:0"/>
					</radialGradient>
					<path class="bike45" d="M521.7,1054.9c-0.9,2.3-6.3,2.4-12.2,0.2c-5.8-2.2-9.9-5.9-9-8.2c0.9-2.3,6.3-2.4,12.2-0.2
						C518.5,1048.9,522.5,1052.5,521.7,1054.9z"/>
					<path class="bike17" d="M555.3,1061.6c3.1,1.8,7.5-5.1,6.4-7c-1.1-1.9-4.1,0.5-5.7,2.3C554.5,1058.6,554.4,1061.1,555.3,1061.6z"
						/>
					<path class="bike17" d="M521.3,1046c3.1,1.8,7.5-5.1,6.4-7c-1.1-1.9-4.1,0.5-5.7,2.3C520.5,1043.1,520.5,1045.6,521.3,1046z"/>
					<path class="bike20" d="M519.2,1068.1c-7.2,10.1,1.9,22.9,12.4,5.8"/>
					<g>
						<path class="bike46" d="M526.4,982.4c-2,5.3-4.2,10.5-6.7,15.5c5.7-0.3,12.7,0.8,12.7,0.8l4.9-10.7L526.4,982.4z"/>
						<path class="bike47" d="M532.9,989.3c-16.9,15.5-4.6,45.2,7.7,50.4c4.4-2,3.5-17.5,3.5-21.3c-2.9,13.1,10.1,33.6,16.1,33.7
							c6,0.1,4.1-12.1,3.1-13.3c2.6,9.5,11.7,20.7,17.5,3.7c2.6,13.2,19.3,18.7,19.3,18.7l2.5,14.7c14.2-9.7,24.4-36.1,26.5-41.8
							L532.9,989.3z"/>
						<path class="bike32" d="M524.4,987.4c-0.3,0.7-0.6,1.5-0.9,2.2c-0.2,0.5-0.5,1.1-0.7,1.6c-0.3,0.6-0.6,1.3-0.8,1.9
							c-0.2,0.5-0.5,1.1-0.7,1.6c0,0.1-0.1,0.2-0.1,0.3c0.7,1,1.3,2,2.1,3c1.2,0,2.4,0.1,3.5,0.2c-0.4,1-0.8,2-1.1,3.1
							c14.3,17.9,37.1,32.7,55.1,41.6c0-0.1,0-0.1,0.1-0.2c0,0.1,0,0.1,0,0.2c9.9,4.9,18.4,8,23.3,9c-0.2,4.3-1.3,9.3-3.2,14.4
							l1.7,9.8c14.2-9.7,24.4-36.1,26.5-41.8l-93.2-43.5l1.2-2.7l-10.8-5.6c-0.4,1.2-0.9,2.4-1.4,3.6
							C524.8,986.5,524.6,986.9,524.4,987.4z"/>
					</g>
					<path class="bike46" d="M564.1,1037.7c15.4,2.7,16.9,15.4,10.6,18.5C576.3,1052.5,576.6,1041.6,564.1,1037.7z"/>
					<path class="bike46" d="M539.2,1024.4c-13.4-8.1-22.9,0.5-20.2,7C520.2,1027.5,527.1,1019.1,539.2,1024.4z"/>
					<path class="bike7" d="M582,1061c17.1-8.4,30.6,4.7,20.8,22.1c-9.8,17.4-34.2,12.5-31.3-2.4C574.7,1063.8,582,1061,582,1061z"/>
					<path class="bike48" d="M587.4,1074.9c3-2.4,6.5-2.8,8.6-2.6c-3.2-6.1-15.6-1.9-13.5,11.5c0.6-2.8,1.5-4.9,2.7-6.6
						c1,0.9,2.8,2.8,3.6,4.9C588.8,1082,589.7,1078,587.4,1074.9z"/>
					<g>
						<path class="bike42" d="M504.9,963.3c5-0.6,10.5,7,12.7,12.8c2.7,7.1,41.3,49.5,87.4,62.7c28.6,8.2,43.3,6.4,48,5.6
							c-7.4-10.7-16.8-21.2-23.2-27.2l-80.3-47C530.5,966.5,508.6,962.2,504.9,963.3z"/>
						<path class="bike42" d="M549.4,970.2c22.4,29.4,60.8,45.6,80.3,47c8.1-15.8,10.6-37.4,10.6-37.4c-17-14.3-56-29.8-73.1-27.8
							C557.3,958.1,549.4,970.2,549.4,970.2z"/>
						<path class="bike17" d="M557.2,960.5c-4.7,5-7.8,9.7-7.8,9.7c22.4,29.4,60.8,45.6,80.3,47c2.9-5.6,5.1-12,6.7-17.9
							C615.1,991.9,576.1,974.8,557.2,960.5z"/>
					</g>
				</g>
			</g>
			<g>
				<path class="bike16" d="M394.2,1234.5c-10.9-5.4-61-15.3-90.2-12.9l-4.5,2.9l28.9,19l63.3-1.2l4.7-3.8L394.2,1234.5z"/>
				<path class="bike49" d="M394.2,1234.5c-10.9-5.4-61-15.3-90.2-12.9l-4.5,2.9l28.9,19l63.3-1.2l4.7-3.8L394.2,1234.5z"/>
				<path class="bike49" d="M394.2,1240.9c-10.9-5.4-61-15.3-90.2-12.9l-4.5,2.9l28.9,19l63.3-1.2l4.7-3.8L394.2,1240.9z"/>
				<g>
					<path class="bike50" d="M348.9,1262.8c-7.9-21.1-40.4-64.3-43.4-70.6l6.5-1.8c14.2,20.2,33.9,57.7,39.6,75
						C357.5,1282.7,348.9,1262.8,348.9,1262.8z"/>
					<path class="bike50" d="M354.9,1272.5c-1.2-22.5,11.2-75.1,11.5-82.1l-6.7,0.9c-4.9,24.2-7.9,66.4-6.3,84.6
						C355.1,1294.2,354.9,1272.5,354.9,1272.5z"/>
					<path class="bike50" d="M365.3,1277c3.7-22.3,27.3-70.8,29.1-77.6l-6.8-0.6c-10.1,22.5-22.2,63.1-24.5,81.2
						C360.7,1298.2,365.3,1277,365.3,1277z"/>
					<path class="bike50" d="M349.9,1291.8c3.7-22.3,27.3-70.8,29.1-77.6l-6.8-0.6c-10.1,22.5-22.2,63.1-24.5,81.2
						C345.3,1313,349.9,1291.8,349.9,1291.8z"/>
					<path class="bike50" d="M354.3,1267.1c-9.6-20.4-17.9-73.8-20.3-80.3l-5.9,3.4c4.5,24.2,17.7,64.5,26.1,80.7
						C362.7,1287.1,354.3,1267.1,354.3,1267.1z"/>
					<path class="bike51" d="M336,1234.2c-5.6-18.7-22.9-19.9-32.6-18.4C306.7,1225,317.3,1238.6,336,1234.2z"/>
					<path class="bike51" d="M356.3,1240.7c19.3-2.3,23.5-19.1,23.7-28.8C370.4,1213.5,355.2,1221.6,356.3,1240.7z"/>
					<path class="bike51" d="M346,1232c13.4-6.7,12-20,9.6-27.1C349.1,1208.6,340.2,1218.4,346,1232z"/>
					<path class="bike51" d="M333.3,1228.4c8.5-12.4,0.9-23.4-4.7-28.4C324.7,1206.4,321.7,1219.3,333.3,1228.4z"/>
					<g>
						<path class="bike52" d="M313.6,1198.5c-7,7.5-25.8,7.9-31.2-8.5c-6.3-19.1,21.1-30.1,30.7-12.5
							C318.5,1187.3,316.6,1195.3,313.6,1198.5z"/>
						<g>
							<path class="bike52" d="M-1600.3-1298.7c0,0,0.1-0.1,0.3-0.4c0.2-0.2,0.6-0.6,1.1-0.9c0.6-0.3,1.4-0.6,2.3-0.6
								c1,0,2.1,0.4,3.1,1.1c1,0.8,1.9,2,2.1,3.6c0.3,1.6-0.2,3.4-1.2,4.8c-0.5,0.7-1.1,1.4-1.7,2l-0.2,0.2l-0.1,0.1l-0.1,0.1
								l-0.1,0.1l-0.5,0.4c-0.4,0.3-0.8,0.6-1.3,0.8c-1.7,1-4.2,1.3-6.3,0.5c-2.2-0.9-3.9-2.8-4.8-5c-0.9-2.2-0.9-4.8-0.2-7.2
								c0.4-1.2,0.9-2.3,1.6-3.3c0.7-1,1.5-2,2.4-2.8c0.5-0.4,0.9-0.8,1.4-1.2c0.5-0.3,0.9-0.7,1.5-1c0.6-0.4,1.2-0.6,1.8-0.8
								c0.6-0.2,1.2-0.4,1.9-0.5c1.3-0.3,2.6-0.3,3.8-0.2c1.3,0.1,2.5,0.4,3.7,0.9c2.4,0.9,4.6,2.3,6.5,4.1c1.8,1.8,3.3,4.1,4,6.7
								c0.7,2.6,0.5,5.5-0.8,8c-0.3,0.6-0.7,1.2-1,1.8c-0.4,0.5-0.8,1.1-1.3,1.6c-0.9,0.9-1.7,1.9-2.8,2.8c-1,0.9-2.2,1.6-3.4,2.3
								c-1.2,0.6-2.4,1.2-3.8,1.5c-2.6,0.8-5.4,0.9-8.1,0.3c-2.7-0.5-5.2-1.9-7.1-3.7c-2-1.9-3.3-4.3-3.9-6.8
								c-0.1-0.6-0.3-1.2-0.4-1.9c0-0.3-0.1-0.6-0.1-0.9l0-1c0-1.3,0.2-2.5,0.5-3.7c1.2-4.7,3.9-8.5,7-11.1c3.2-2.6,7-4,10.4-3.9
								c1.7,0,3.2,0.3,4.6,0.8c0.7,0.2,1.3,0.5,1.9,0.8c0.6,0.3,1.1,0.6,1.6,0.9c2,1.3,3.2,2.6,4.1,3.4c0.8,0.9,1.2,1.4,1.2,1.4
								l-0.2,0.2c0,0-0.5-0.4-1.4-1.2c-0.9-0.7-2.3-1.9-4.3-2.8c-0.5-0.2-1-0.4-1.6-0.7c-0.6-0.2-1.1-0.4-1.8-0.5
								c-1.2-0.3-2.6-0.5-4.1-0.3c-2.9,0.2-6.1,1.5-8.7,4c-1.3,1.2-2.5,2.7-3.5,4.3c-1,1.7-1.8,3.5-2.2,5.5c-0.2,1-0.3,2-0.3,3
								l0,0.7c0,0.3,0,0.6,0.1,0.8c0,0.5,0.2,1,0.3,1.5c0.5,2,1.5,3.8,3,5.4c1.5,1.5,3.4,2.6,5.6,3.1c2.2,0.5,4.5,0.5,6.8-0.1
								c1.2-0.2,2.2-0.7,3.3-1.1c1-0.6,2.1-1.1,3.1-1.9c1-0.6,1.9-1.5,2.9-2.4c0.4-0.3,0.8-0.9,1.2-1.3c0.3-0.5,0.7-1,1-1.5
								c1.2-2.1,1.6-4.6,1.1-7c-0.3-1.2-0.7-2.3-1.3-3.4c-0.6-1.1-1.4-2-2.2-2.9c-0.8-0.9-1.9-1.6-2.9-2.3c-1-0.7-2.1-1.2-3.3-1.5
								c-1.1-0.4-2.3-0.6-3.5-0.6c-1.2,0-2.3,0.1-3.4,0.4c-0.5,0.1-1,0.4-1.6,0.6c-0.5,0.3-1,0.5-1.4,0.8c-0.2,0.2-0.4,0.3-0.6,0.5
								l-0.7,0.6c-0.4,0.3-0.8,0.8-1.1,1.2c-1.4,1.6-2.5,3.5-3,5.4c-0.5,1.9-0.5,3.8,0.2,5.5c0.6,1.7,1.8,3,3.2,3.6
								c1.4,0.6,3,0.5,4.4-0.2c0.4-0.2,0.6-0.3,1-0.5l0.5-0.4l0.1-0.1c0,0,0.1-0.1,0,0l0.1,0l0.2-0.2c0.6-0.5,1.1-1,1.5-1.5
								c0.9-1.1,1.2-2.3,1.2-3.5c-0.1-1.1-0.6-2.1-1.3-2.8c-0.7-0.7-1.6-1.1-2.3-1.2c-0.8-0.1-1.5,0-2,0.2c-1,0.4-1.5,1-1.5,1
								L-1600.3-1298.7z"/>
						</g>
					</g>
					<g>
						<path class="bike52" d="M343.4,1195.2c-4.8-11.4,4.1-32.3,24.9-30.1c24.1,2.6,22.6,38.2-1.5,40
							C353.3,1206.2,345.4,1200.1,343.4,1195.2z"/>
						<g>
							<path class="bike52" d="M-1517.7-1298.8c0,0,0.1,0.2,0.2,0.5c0.1,0.3,0.4,0.9,0.4,1.7c0.1,0.8,0,1.8-0.5,2.8
								c-0.5,1-1.4,2.1-2.8,2.8c-1.3,0.7-3.1,1-4.9,0.5c-1.8-0.5-3.5-1.8-4.6-3.6c-0.6-0.9-1-1.9-1.3-2.9l-0.1-0.4l0-0.1l0-0.1
								l0-0.2c-0.1-0.2-0.1-0.5-0.2-0.7c-0.1-0.5-0.2-1.2-0.2-1.8c-0.2-2.3,0.6-5.1,2.6-7c2-1.9,4.8-2.8,7.6-2.7
								c2.8,0.1,5.6,1.4,7.8,3.3c1.1,1,2,2.1,2.9,3.3c0.8,1.2,1.4,2.6,1.9,4c0.2,0.7,0.5,1.4,0.6,2.2l0.2,1c0.1,0.3,0.1,0.8,0.2,1.2
								c0.1,0.8,0.1,1.5,0.1,2.3c-0.1,0.8-0.1,1.5-0.3,2.3c-0.3,1.5-0.9,3-1.7,4.3c-0.8,1.3-1.7,2.6-2.8,3.7c-2.1,2.2-4.8,4-7.7,5.1
								c-2.9,1.1-6.2,1.6-9.3,1c-3.2-0.5-6.2-2.2-8.3-4.8c-0.6-0.6-1-1.3-1.4-2c-0.4-0.7-0.8-1.4-1.1-2.2l-0.5-1.1l-0.4-1.1
								c-0.3-0.8-0.5-1.5-0.7-2.3c-0.4-1.6-0.7-3.2-0.8-4.8c-0.1-1.6,0-3.3,0.2-4.9c0.5-3.2,1.7-6.3,3.7-8.9
								c1.9-2.6,4.6-4.7,7.5-5.9c3-1.2,6.3-1.5,9.3-0.9c0.4,0.1,0.8,0.2,1.1,0.3l0.6,0.1l0.6,0.2c0.3,0.1,0.6,0.2,1,0.3l1.1,0.5
								c1.4,0.7,2.6,1.4,3.7,2.3c2.3,1.8,4.1,3.9,5.5,6.1c1.4,2.2,2.5,4.6,3.1,7c1.3,4.8,0.9,9.6-0.8,13.2c-0.8,1.8-1.9,3.4-3.1,4.6
								c-0.5,0.7-1.2,1.2-1.8,1.7c-0.6,0.5-1.2,0.9-1.8,1.3c-2.3,1.5-4.4,2.3-5.8,2.8c-1.4,0.4-2.2,0.7-2.2,0.7l-0.1-0.3
								c0,0,0.7-0.3,2-0.9c1.3-0.7,3.2-1.6,5.3-3.2c0.5-0.4,1-0.9,1.6-1.4c0.5-0.5,1.1-1,1.5-1.7c1-1.2,1.9-2.7,2.5-4.4
								c1.2-3.3,1.4-7.5,0-11.7c-0.6-2.1-1.7-4.2-3-6.1c-1.3-1.9-3-3.8-5-5.3c-1-0.8-2.1-1.4-3.2-1.9l-0.8-0.4
								c-0.3-0.1-0.6-0.2-1-0.3l-0.4-0.1l-0.5-0.1c-0.3-0.1-0.6-0.2-0.9-0.2c-2.5-0.5-5.1-0.2-7.6,0.7c-2.4,0.9-4.7,2.6-6.4,4.8
								c-1.7,2.2-2.8,4.8-3.4,7.6c-0.3,1.4-0.4,2.9-0.3,4.3c0,1.5,0.2,2.9,0.5,4.4c0.2,0.7,0.3,1.5,0.5,2.2l0.3,1.1l0.4,1.1
								c0.2,0.7,0.6,1.3,0.9,2c0.4,0.6,0.7,1.3,1.2,1.9c1.7,2.4,4.3,4.1,7.2,4.7c1.5,0.3,3,0.4,4.4,0.2c1.5-0.1,3-0.5,4.4-1
								c1.4-0.5,2.7-1.2,4-2c1.2-0.8,2.4-1.8,3.3-2.9c1-1.1,1.8-2.3,2.4-3.6c0.6-1.3,1.1-2.6,1.2-4c0.1-0.7,0.1-1.4,0.2-2
								c-0.1-0.7-0.1-1.4-0.2-2c-0.1-0.3-0.1-0.6-0.2-1l-0.3-1c-0.2-0.6-0.5-1.2-0.7-1.8c-1.1-2.4-2.6-4.6-4.4-6.1
								c-1.8-1.6-4.1-2.5-6.3-2.6c-2.2-0.2-4.3,0.5-5.7,1.8c-1.4,1.3-2.1,3.2-2.1,5.1c0,0.5,0.1,0.9,0.1,1.4c0,0.3,0.1,0.5,0.1,0.8
								l0,0.2c0,0,0,0.1,0,0l0,0.1l0.1,0.3c0.2,0.9,0.6,1.7,1,2.5c0.8,1.5,2,2.6,3.3,3.1c1.3,0.5,2.7,0.3,3.9-0.1
								c1.1-0.5,2-1.2,2.5-2.1c0.5-0.8,0.7-1.7,0.7-2.3c0-1.4-0.4-2.1-0.3-2.1L-1517.7-1298.8z"/>
						</g>
					</g>
					<g>
						<path class="bike52" d="M382.4,1206.1c-7.1-3.9-20.2-1.5-22,9.6c-1.8,11.1,5.6,14.7,10,15.7c4.4,1.1,15.7-1.1,18.6-9.9
							C392,1212.6,386.7,1208.5,382.4,1206.1z"/>
						<g>
							<path class="bike52" d="M-1514-1264.2c0,0-0.1,0-0.2,0.2c-0.1,0.1-0.2,0.4-0.1,0.8c0.1,0.3,0.2,0.7,0.5,1.1
								c0.3,0.4,0.8,0.6,1.4,0.6c0.6,0,1.3-0.3,1.8-0.8c0.4-0.4,0.5-1.1,0.1-1.7c-0.8-1.3-2.8-2.1-4.8-1.9c-1,0.1-2.1,0.4-3.1,0.8
								c-0.3,0.1-0.5,0.2-0.8,0.4l-0.3,0.2l-0.4,0.3c-0.3,0.2-0.4,0.3-0.6,0.5c-0.2,0.2-0.4,0.4-0.5,0.6c-0.7,0.8-0.9,1.8-0.7,2.8
								c0.2,1,0.8,2.1,1.6,3c1.7,1.8,4.2,3,6.9,3.6c0.7,0.1,1.4,0.2,2,0.3l1,0l0.6,0c0.2,0,0.4,0,0.5-0.1c0.5-0.1,1.2-0.3,1.7-0.5
								c0.5-0.3,1-0.6,1.5-1c1.8-1.6,2.5-4.5,2.4-7.1c-0.1-1.3-0.4-2.6-0.8-3.9c-0.5-1.2-1.2-2.3-2-3.2c-0.9-0.9-1.8-1.5-3-2
								c-0.3-0.1-0.6-0.3-0.9-0.4c-0.3-0.1-0.6-0.2-0.9-0.3c-0.6-0.2-1.2-0.4-1.8-0.5c-2.4-0.6-4.8-0.8-6.9-0.5
								c-2.1,0.3-4.1,0.9-5.6,1.8c-1.5,0.9-2.7,2-3.4,3.1c-0.8,1-1.3,1.9-1.6,2.6c-0.3,0.6-0.5,1-0.5,1s0.1-0.4,0.3-1
								c0.1-0.3,0.2-0.8,0.4-1.2c0.2-0.5,0.4-1.1,0.8-1.6c0.7-1.2,1.7-2.5,3.3-3.7c1.5-1.2,3.6-2.1,5.9-2.6c2.3-0.5,5-0.5,7.7,0
								c0.7,0.1,1.4,0.3,2,0.5c0.3,0.1,0.7,0.2,1,0.3c0.3,0.1,0.6,0.2,1,0.4c1.4,0.5,2.9,1.4,4,2.5c2.3,2.3,3.6,5.5,3.8,8.8
								c0.1,1.6,0,3.3-0.5,5c-0.5,1.6-1.4,3.3-2.7,4.5c-0.7,0.6-1.5,1.1-2.3,1.5c-0.9,0.4-1.7,0.6-2.7,0.7c-0.3,0-0.4,0-0.6,0.1
								l-0.6,0l-0.1,0l-0.1,0l-0.2,0l-0.3,0c-0.2,0-0.4,0-0.6,0c-0.8-0.1-1.6-0.2-2.4-0.3c-3.2-0.7-6.2-2.2-8.3-4.6
								c-1-1.2-1.9-2.7-2.1-4.4c-0.1-0.8,0-1.7,0.2-2.5c0.3-0.8,0.7-1.5,1.3-2.1c0.3-0.3,0.6-0.5,0.8-0.8c0.3-0.2,0.7-0.5,0.9-0.6
								l0.4-0.2c0.2-0.1,0.3-0.2,0.5-0.2c0.3-0.2,0.6-0.3,0.9-0.4c1.2-0.5,2.5-0.7,3.8-0.7c2.5,0,4.9,1.1,5.9,3.1
								c0.2,0.5,0.4,1.1,0.2,1.6c-0.1,0.6-0.4,1-0.8,1.3c-0.8,0.5-1.5,0.7-2.3,0.7c-0.8,0-1.4-0.5-1.6-1c-0.3-0.5-0.4-0.9-0.4-1.3
								c0-0.4,0.1-0.7,0.2-0.8C-1514.1-1264.3-1514-1264.2-1514-1264.2z"/>
						</g>
					</g>
					<g>
						<path class="bike52" d="M394.6,1178.1c-16.9,2.3-20.1,31.2,3.9,26.9c24-4.4,10.8-22.1,7.7-24.2
							C402,1178,398.7,1177.6,394.6,1178.1z"/>
						<g>
							<path class="bike52" d="M-1500.7-1290.7c0,0-0.1-0.1-0.2-0.3c-0.1-0.2-0.1-0.7,0.3-1c0.8-0.6,2.3-0.8,4-0.5
								c0.9,0.2,1.8,0.5,2.8,1.1c0.2,0.2,0.4,0.3,0.7,0.5c0.1,0.1,0.2,0.2,0.3,0.3c0.1,0.1,0.2,0.3,0.3,0.4c0.4,0.6,0.4,1.4,0.2,2.1
								c-0.4,1.4-1.5,2.5-2.8,3.2c-1.3,0.7-2.9,1.1-4.5,1.1c-1.7-0.1-3.3-0.5-4.9-1.5c-0.2-0.1-0.3-0.2-0.5-0.3
								c-0.2-0.2-0.4-0.3-0.6-0.5l-0.5-0.6l-0.4-0.6c-0.5-0.9-0.7-1.9-0.8-2.9c0-2,0.8-3.9,1.8-5.5c1.1-1.6,2.6-3,4.3-4.1
								c1.7-1.1,3.8-1.8,5.9-1.9c0.5,0,1.1,0,1.6,0l0.2,0l0.1,0c0.1,0,0,0,0.1,0l0,0l0.4,0.1c0.2,0.1,0.4,0.1,0.7,0.1
								c1.2,0.3,2.1,0.7,3.1,1.2c3.7,2.2,6.6,5.5,8.2,9.5c0.8,2,1.3,4.2,1.1,6.5c-0.1,1.1-0.4,2.3-0.9,3.3c-0.5,1-1.1,2-1.9,2.8
								c-1.6,1.6-3.5,2.6-5.5,3.3c-1.9,0.6-3.9,1-5.8,1.2l-0.7,0.1c-0.3,0-0.5,0-0.7,0c-0.5,0-0.9,0-1.4,0c-0.9,0-1.9,0-2.9-0.1
								c-1.9-0.2-3.7-0.6-5.4-1.4c-1.7-0.7-3.2-1.9-4.3-3.3c-1.1-1.4-1.7-3-2-4.6c-0.5-3.2,0.1-6,1-8.3c0.9-2.3,2.1-4.1,3.3-5.4
								c1.2-1.3,2.4-2.1,3.2-2.5c0.4-0.2,0.8-0.3,1-0.4c0.2-0.1,0.3-0.1,0.3-0.1s-0.1,0.1-0.3,0.1c-0.2,0.1-0.5,0.2-0.9,0.5
								c-0.8,0.5-1.8,1.4-2.8,2.7c-1,1.3-2,3.2-2.7,5.4c-0.7,2.2-1,4.9-0.4,7.6c0.3,1.3,0.9,2.6,1.9,3.7c0.9,1.1,2.2,1.9,3.6,2.5
								c1.4,0.6,3,0.9,4.7,1c0.4,0,0.8,0,1.3,0c0.4,0,0.8,0,1.3,0c0.5,0,0.9-0.1,1.4-0.1c0.2,0,0.5,0,0.6,0l0.7-0.1
								c1.8-0.2,3.5-0.6,5.2-1.2c1.6-0.6,3.2-1.5,4.3-2.6c1.2-1.2,1.8-2.7,2-4.4c0.1-1.7-0.2-3.4-0.9-5.1c-1.4-3.3-3.9-6.3-6.9-8.1
								c-0.7-0.4-1.6-0.8-2.3-1c-0.2-0.1-0.5-0.1-0.7-0.2l-0.4-0.1l-0.2,0c-0.4-0.1-0.8-0.1-1.2-0.1c-1.6,0.1-3.3,0.6-4.7,1.4
								c-1.4,0.8-2.7,2-3.6,3.3c-0.9,1.3-1.6,2.8-1.6,4.1c-0.3,2.8,2.9,4.5,5.5,4.8c1.3,0.1,2.6-0.1,3.7-0.7c1.1-0.5,2-1.3,2.3-2.2
								c0.2-0.5,0.1-0.9,0-1.3c0-0.1-0.1-0.2-0.1-0.3c-0.1-0.1-0.2-0.2-0.3-0.3c-0.2-0.2-0.4-0.3-0.5-0.5c-0.8-0.6-1.6-1-2.4-1.3
								c-1.6-0.5-3-0.4-3.8,0.1c-0.4,0.3-0.4,0.6-0.4,0.9C-1500.7-1290.8-1500.7-1290.7-1500.7-1290.7z"/>
						</g>
					</g>
					<g>
						<path class="bike52" d="M329.1,1163.7c-18.5,2.6-22,34.2,4.2,29.4c26.3-4.8,11.8-24.2,8.4-26.5
							C337.1,1163.6,333.6,1163.1,329.1,1163.7z"/>
						<g>
							<path class="bike52" d="M-1566.6-1304.2c0,0-0.1-0.1-0.2-0.4c-0.1-0.2-0.1-0.7,0.3-1.1c0.8-0.7,2.5-0.9,4.4-0.5
								c1,0.2,2,0.6,3,1.3c0.2,0.2,0.5,0.3,0.8,0.6c0.1,0.1,0.2,0.2,0.3,0.3c0.1,0.2,0.3,0.3,0.3,0.5c0.4,0.6,0.5,1.5,0.3,2.3
								c-0.4,1.5-1.6,2.7-3,3.5c-1.4,0.8-3.1,1.2-4.9,1.2c-1.8-0.1-3.6-0.6-5.3-1.6c-0.2-0.1-0.4-0.2-0.6-0.4
								c-0.2-0.2-0.4-0.4-0.6-0.6l-0.5-0.6l-0.4-0.7c-0.5-1-0.8-2.1-0.8-3.2c0-2.2,0.8-4.2,2-6c1.2-1.8,2.8-3.3,4.7-4.5
								c1.9-1.2,4.1-2,6.4-2.1c0.6,0,1.2,0,1.8,0l0.2,0l0.1,0c0.1,0,0,0,0.1,0l0,0l0.4,0.1c0.3,0.1,0.5,0.1,0.8,0.2
								c1.3,0.3,2.3,0.8,3.3,1.4c4,2.3,7.1,6,9,10.3c0.9,2.2,1.4,4.6,1.2,7c-0.1,1.2-0.4,2.4-0.9,3.6c-0.5,1.1-1.2,2.2-2.1,3
								c-1.7,1.8-3.8,2.8-5.9,3.5c-2.1,0.7-4.3,1.1-6.3,1.3l-0.8,0.1c-0.3,0-0.5,0-0.8,0c-0.5,0-1,0-1.5,0.1c-1,0-2.1,0-3.1-0.1
								c-2-0.2-4-0.7-5.9-1.5c-1.8-0.8-3.5-2-4.7-3.5c-1.2-1.5-1.9-3.3-2.2-5c-0.6-3.4,0.1-6.6,1.1-9.1c1-2.5,2.3-4.5,3.6-5.9
								c1.3-1.4,2.6-2.3,3.5-2.7c0.5-0.2,0.8-0.4,1.1-0.4c0.2-0.1,0.4-0.1,0.4-0.1s-0.1,0.1-0.4,0.2c-0.2,0.1-0.6,0.3-1,0.5
								c-0.9,0.5-2,1.5-3.1,3c-1.1,1.5-2.2,3.5-3,5.9c-0.7,2.4-1.1,5.4-0.5,8.3c0.4,1.5,1,2.9,2.1,4.1c1,1.2,2.4,2.1,4,2.7
								c1.6,0.6,3.4,1,5.2,1.1c0.5,0.1,0.9,0,1.4,0c0.5,0,0.9,0,1.4,0c0.5,0,1-0.1,1.5-0.1c0.2,0,0.6,0,0.7-0.1l0.7-0.1
								c1.9-0.2,3.9-0.6,5.7-1.3c1.8-0.7,3.5-1.6,4.8-2.9c1.3-1.3,2-3,2.2-4.9c0.1-1.8-0.3-3.8-1-5.6c-1.5-3.7-4.3-7-7.6-8.9
								c-0.8-0.5-1.7-0.9-2.5-1.1c-0.2-0.1-0.5-0.1-0.7-0.2l-0.4-0.1l-0.3,0c-0.5-0.1-0.9-0.1-1.4-0.1c-1.8,0.1-3.6,0.7-5.2,1.6
								c-1.6,0.9-3,2.2-4,3.6c-1,1.4-1.7,3.1-1.8,4.6c-0.1,1.6,0.6,2.9,1.9,3.7c1.2,0.9,2.8,1.4,4.2,1.6c1.5,0.1,2.9-0.2,4.1-0.7
								c1.2-0.6,2.2-1.5,2.6-2.5c0.2-0.5,0.2-1,0-1.5c0-0.1-0.1-0.2-0.2-0.3c-0.1-0.1-0.2-0.2-0.3-0.3c-0.2-0.2-0.4-0.4-0.6-0.5
								c-0.8-0.7-1.8-1.1-2.6-1.4c-1.7-0.5-3.3-0.5-4.1,0.1c-0.4,0.3-0.4,0.7-0.4,0.9C-1566.6-1304.3-1566.6-1304.2-1566.6-1304.2z"
								/>
						</g>
					</g>
					<g>
						<path class="bike52" d="M348.8,1203.6c-5.8-19.6-41.6-14-30.9,10.2C325.3,1230.5,356.1,1228.2,348.8,1203.6z"/>
						<g>
							<path class="bike52" d="M-1564.7-1267.8c0,0-0.4,0-1.2-0.1c-0.4,0-0.8-0.1-1.4-0.2c-0.5-0.1-1.2-0.2-1.9-0.5
								c-1.4-0.4-3-1.2-4.5-2.6c-0.8-0.7-1.4-1.7-1.9-2.8c-0.1-0.3-0.2-0.6-0.3-0.9l-0.1-0.5l0-0.5c0-0.3-0.1-0.6-0.1-1
								c0-0.3,0.1-0.7,0.1-1c0-0.2,0-0.3,0.1-0.5l0.1-0.5c0.1-0.3,0.2-0.7,0.3-1c0.2-0.3,0.3-0.6,0.5-0.9c0.2-0.3,0.3-0.6,0.5-0.9
								c0.4-0.6,0.8-1.2,1.3-1.7c0.2-0.3,0.5-0.5,0.8-0.8c0.3-0.2,0.6-0.5,0.8-0.7c0.3-0.2,0.5-0.4,0.9-0.7c0.3-0.2,0.6-0.4,0.9-0.6
								c0.4-0.2,0.7-0.4,1.1-0.6c0.4-0.2,0.7-0.3,1.1-0.5c1.5-0.6,3.1-0.9,4.7-1c3.2-0.2,6.6,0.3,9.7,1.7c1.6,0.7,3.1,1.6,4.4,2.8
								c1.3,1.2,2.5,2.7,3.2,4.4c0.7,1.7,0.9,3.7,0.6,5.5c-0.3,1.8-1,3.5-2.2,5c-1.1,1.5-2.8,2.6-4.5,3.1c-1.7,0.6-3.5,0.6-5.1,0.4
								c-1.7-0.2-3.2-0.7-4.6-1.4c-1.4-0.7-2.7-1.6-3.7-2.8c-1-1.1-1.9-2.5-2.2-4c-0.2-0.7-0.2-1.5-0.1-2.2c0.1-0.4,0.1-0.7,0.2-1.1
								l0.1-0.4c0.1-0.2,0.1-0.3,0.2-0.5c0.6-1.3,1.8-2.4,3.1-2.6c1.3-0.2,2.5,0.2,3.4,0.7c0.9,0.5,1.7,1.3,2.1,2.1
								c0.5,0.8,0.6,1.8,0.3,2.5c-0.2,0.8-0.7,1.3-1.2,1.6c-0.4,0.4-0.9,0.6-1.2,0.7c-0.3,0.2-0.6,0.2-0.8,0.3
								c-0.2,0.1-0.3,0.1-0.3,0.1s0.1,0,0.3-0.1c0.2-0.1,0.4-0.2,0.7-0.4c0.3-0.2,0.7-0.5,1.1-0.9c0.4-0.4,0.7-0.9,0.8-1.5
								c0.2-1.2-0.8-2.7-2.4-3.5c-0.8-0.4-1.8-0.5-2.6-0.3c-0.8,0.2-1.5,0.9-1.8,1.8c-0.8,2-0.1,4.3,1.7,6c0.9,0.9,2,1.6,3.2,2.1
								c1.2,0.5,2.5,0.9,3.9,1c1.3,0.1,2.7,0,3.9-0.4c1.2-0.4,2.3-1.2,3.1-2.3c0.8-1,1.3-2.4,1.5-3.7c0.2-1.3,0.1-2.7-0.4-3.9
								c-1-2.5-3.4-4.5-6-5.7c-2.6-1.2-5.6-1.8-8.4-1.7c-1.4,0.1-2.7,0.3-4,0.7c-0.3,0.1-0.6,0.2-0.9,0.3l-0.8,0.4
								c-0.3,0.2-0.6,0.4-0.9,0.5l-0.7,0.6c-0.3,0.2-0.5,0.4-0.8,0.6c-0.2,0.2-0.5,0.4-0.7,0.6c-0.5,0.4-0.8,0.9-1.2,1.4
								c-0.2,0.2-0.4,0.5-0.5,0.7c-0.1,0.2-0.3,0.5-0.4,0.7c-0.1,0.3-0.2,0.5-0.3,0.8l-0.1,0.4c0,0.1,0,0.3-0.1,0.4
								c0,0.3-0.1,0.5-0.1,0.8c0,0.3,0,0.5,0,0.8l0,0.4l0.1,0.4c0,0.2,0.1,0.5,0.1,0.7c0.3,0.9,0.8,1.8,1.4,2.5
								c1.2,1.4,2.6,2.3,3.9,2.8c0.6,0.3,1.2,0.5,1.7,0.7c0.5,0.2,1,0.3,1.3,0.4C-1565.1-1267.9-1564.7-1267.8-1564.7-1267.8z"/>
						</g>
					</g>
				</g>
				<path class="bike53" d="M296.2,1233.2c17,23.2,12.7,67.5,12.7,67.5c13.8,9.6,56.2,14.6,73.1,6.9c1.8-18.3,10.7-57.8,14.8-60.5
					c0,0-53.9-3-55.2-3.1C340.5,1243.9,296.2,1233.2,296.2,1233.2z"/>
				<path class="bike49" d="M396.9,1247.1c0,0-53.9-3-55.2-3.1c-1.3-0.1-45.5-10.8-45.5-10.8c4.2,5.7,7.1,12.7,9.1,19.9
					c25.5,11.6,65.4,14,75.2,10.8c-4.3,13.7-7.5,33.4-7.1,46.2c3.3-0.6,6.2-1.4,8.7-2.5C383.9,1289.2,392.8,1249.8,396.9,1247.1z"/>
				<path class="bike16" d="M304,1221.5c-11.3,13.2,91.3,27.4,90.2,12.9c8.4,2.8,11.6,14.9-4.8,18.7c-16.2,3.8-76.1,3.4-93.3-17.4
					C289.4,1227.7,296.4,1220.6,304,1221.5z"/>
				<g>
					<g>
						<path class="bike53" d="M-1574.3-1187.7c0,0,0.8-0.3,2.3-0.9c0.7-0.3,1.6-0.6,2.7-1c1-0.4,2.1-0.9,3.4-1.5
							c0.6-0.3,1.3-0.5,1.9-0.9c0.6-0.3,1.3-0.7,2-1c0.7-0.3,1.4-0.7,2.1-1.1c0.7-0.4,1.4-0.8,2.1-1.2c0.7-0.4,1.5-0.8,2.2-1.3
							c0.7-0.5,1.5-0.9,2.2-1.4c0.7-0.5,1.5-0.9,2.2-1.4c0.7-0.5,1.5-1,2.2-1.6c1.5-1,2.9-2.1,4.3-3.2c1.4-1.1,2.7-2.2,4-3.3
							c1.2-1.1,2.5-2.1,3.6-3.2c1.1-1,2.2-2,3.1-3c1.9-1.9,3.5-3.5,4.5-4.6c1.1-1.2,1.6-1.8,1.6-1.8s-0.5,0.7-1.5,2
							c-0.5,0.6-1.1,1.3-1.8,2.2c-0.7,0.8-1.5,1.8-2.5,2.7c-0.9,1-1.9,2-3,3.1c-1.1,1.1-2.3,2.2-3.6,3.3c-1.3,1.1-2.6,2.2-4,3.3
							c-1.4,1.1-2.8,2.2-4.3,3.2c-0.7,0.5-1.5,1-2.2,1.5c-0.7,0.5-1.5,1-2.3,1.4c-0.8,0.5-1.5,0.9-2.2,1.4c-0.8,0.4-1.5,0.8-2.3,1.2
							c-0.7,0.4-1.5,0.8-2.2,1.2c-0.7,0.3-1.5,0.7-2.2,1c-0.7,0.3-1.4,0.6-2,0.9c-0.7,0.3-1.3,0.5-2,0.8c-1.3,0.5-2.4,0.9-3.4,1.3
							c-1,0.3-2,0.6-2.7,0.8C-1573.4-1187.9-1574.3-1187.7-1574.3-1187.7z"/>
					</g>
					<g>
						<path class="bike53" d="M-1563.1-1186c0,0,0.8-0.3,2.3-0.9c0.7-0.3,1.6-0.6,2.7-1c1-0.4,2.1-0.9,3.4-1.5
							c0.6-0.3,1.3-0.5,1.9-0.8c0.6-0.3,1.3-0.7,2-1c0.7-0.3,1.4-0.7,2.1-1.1c0.7-0.4,1.4-0.8,2.1-1.2c0.7-0.4,1.5-0.8,2.2-1.3
							c0.7-0.5,1.5-0.9,2.2-1.4c0.7-0.5,1.5-0.9,2.2-1.4c0.7-0.5,1.5-1,2.2-1.6c1.5-1,2.9-2.1,4.3-3.2c1.4-1.1,2.7-2.2,4-3.3
							c1.2-1.1,2.5-2.1,3.6-3.2c1.1-1,2.2-2,3.1-3c1.9-1.9,3.5-3.5,4.5-4.6c1.1-1.2,1.6-1.8,1.6-1.8s-0.5,0.7-1.5,2
							c-0.5,0.6-1.1,1.3-1.8,2.2c-0.7,0.8-1.5,1.8-2.5,2.7c-0.9,1-1.9,2-3,3.1c-1.1,1.1-2.3,2.2-3.6,3.3c-1.3,1.1-2.6,2.2-4,3.3
							c-1.4,1.1-2.8,2.2-4.3,3.2c-0.7,0.5-1.5,1-2.2,1.5c-0.7,0.5-1.5,1-2.3,1.4c-0.8,0.5-1.5,0.9-2.2,1.4c-0.8,0.4-1.5,0.8-2.3,1.2
							c-0.7,0.4-1.5,0.8-2.2,1.2c-0.7,0.3-1.5,0.7-2.2,1c-0.7,0.3-1.4,0.6-2,0.9c-0.7,0.3-1.3,0.5-2,0.8c-1.3,0.5-2.4,0.9-3.4,1.3
							c-1,0.3-2,0.6-2.7,0.8C-1562.2-1186.2-1563.1-1186-1563.1-1186z"/>
					</g>
					<g>
						<path class="bike53" d="M-1559.5-1177.6c0,0,0.8-0.3,2.3-0.9c0.7-0.3,1.6-0.6,2.7-1c1-0.4,2.1-0.9,3.4-1.5
							c0.6-0.3,1.3-0.5,1.9-0.9c0.6-0.3,1.3-0.7,2-1c0.7-0.3,1.4-0.7,2.1-1.1c0.7-0.4,1.4-0.8,2.1-1.2c0.7-0.4,1.5-0.8,2.2-1.3
							c0.7-0.5,1.5-0.9,2.2-1.4c0.7-0.5,1.5-0.9,2.2-1.4c0.7-0.5,1.5-1,2.2-1.6c1.5-1,2.9-2.1,4.3-3.2c1.4-1.1,2.7-2.2,4-3.3
							c1.2-1.1,2.5-2.1,3.6-3.2c1.1-1,2.2-2,3.1-3c1.9-1.9,3.5-3.5,4.5-4.6c1.1-1.2,1.6-1.8,1.6-1.8s-0.5,0.7-1.5,2
							c-0.5,0.6-1.1,1.3-1.8,2.2c-0.7,0.8-1.5,1.8-2.5,2.7c-0.9,1-1.9,2-3,3.1c-1.1,1.1-2.3,2.2-3.6,3.3c-1.3,1.1-2.6,2.2-4,3.3
							c-1.4,1.1-2.8,2.2-4.3,3.2c-0.7,0.5-1.5,1-2.2,1.5c-0.7,0.5-1.5,1-2.3,1.4c-0.8,0.5-1.5,0.9-2.2,1.4c-0.8,0.4-1.5,0.8-2.3,1.2
							c-0.7,0.4-1.5,0.8-2.2,1.2c-0.7,0.3-1.5,0.7-2.2,1c-0.7,0.3-1.4,0.6-2,0.9c-0.7,0.3-1.3,0.5-2,0.8c-1.3,0.5-2.4,0.9-3.4,1.3
							c-1,0.3-2,0.6-2.7,0.8C-1558.7-1177.8-1559.5-1177.6-1559.5-1177.6z"/>
					</g>
					<g>
						<path class="bike53" d="M-1558.6-1222.7c0,0,0.6,0.7,1.7,1.8c0.5,0.6,1.2,1.3,1.9,2.1c0.8,0.8,1.6,1.6,2.6,2.6
							c0.5,0.5,0.9,1,1.5,1.5c0.5,0.5,1.1,1,1.7,1.5c0.6,0.5,1.2,1,1.8,1.6c0.6,0.5,1.3,1,1.9,1.5c0.7,0.5,1.3,1.1,2,1.6
							c0.7,0.5,1.4,1,2.1,1.5c0.7,0.5,1.4,1,2.2,1.5c0.7,0.5,1.5,1,2.2,1.5c1.5,1,3,1.9,4.5,2.8c1.5,0.9,3,1.7,4.5,2.5
							c1.5,0.7,2.9,1.5,4.3,2.2c1.4,0.7,2.7,1.3,3.9,1.8c2.5,1.1,4.5,1.9,6,2.5c1.5,0.6,2.3,0.9,2.3,0.9s-0.9-0.2-2.4-0.7
							c-0.8-0.2-1.7-0.5-2.7-0.9c-1-0.4-2.2-0.8-3.4-1.3c-1.3-0.5-2.6-1.1-4-1.7c-1.4-0.6-2.9-1.3-4.4-2.1c-1.5-0.8-3-1.6-4.6-2.5
							c-1.5-0.9-3.1-1.8-4.6-2.8c-0.8-0.5-1.5-1-2.2-1.5c-0.7-0.5-1.4-1.1-2.2-1.6c-0.7-0.5-1.4-1.1-2.1-1.6c-0.7-0.6-1.3-1.1-2-1.6
							c-0.6-0.5-1.3-1.1-1.9-1.6c-0.6-0.6-1.2-1.1-1.7-1.6c-0.6-0.5-1.1-1-1.6-1.6c-0.5-0.5-1-1-1.5-1.5c-0.9-1-1.8-1.9-2.5-2.7
							c-0.7-0.9-1.3-1.6-1.7-2.2C-1558-1222-1558.6-1222.7-1558.6-1222.7z"/>
					</g>
					<g>
						<path class="bike53" d="M-1567.1-1216.9c0,0,0.6,0.7,1.7,1.8c0.5,0.6,1.2,1.3,1.9,2.1c0.8,0.8,1.6,1.6,2.6,2.6
							c0.5,0.5,0.9,1,1.5,1.5c0.5,0.5,1.1,1,1.7,1.5c0.6,0.5,1.2,1,1.8,1.6c0.6,0.5,1.3,1,1.9,1.5c0.7,0.5,1.3,1.1,2,1.6
							c0.7,0.5,1.4,1,2.1,1.5c0.7,0.5,1.4,1,2.2,1.5c0.7,0.5,1.5,1,2.2,1.5c1.5,1,3,1.9,4.5,2.8c1.5,0.9,3,1.7,4.5,2.5
							c1.5,0.7,2.9,1.5,4.3,2.2c1.4,0.7,2.7,1.3,3.9,1.8c2.5,1.1,4.5,1.9,6,2.5c1.5,0.6,2.3,0.9,2.3,0.9s-0.9-0.2-2.4-0.7
							c-0.8-0.2-1.7-0.5-2.7-0.9c-1-0.4-2.2-0.8-3.4-1.3c-1.3-0.5-2.6-1.1-4-1.7c-1.4-0.6-2.9-1.3-4.4-2.1c-1.5-0.8-3-1.6-4.6-2.5
							c-1.5-0.9-3.1-1.8-4.6-2.8c-0.8-0.5-1.5-1-2.2-1.5c-0.7-0.5-1.4-1.1-2.2-1.6c-0.7-0.5-1.4-1.1-2.1-1.6c-0.7-0.6-1.3-1.1-2-1.6
							c-0.6-0.5-1.3-1.1-1.9-1.6c-0.6-0.6-1.2-1.1-1.7-1.6c-0.6-0.5-1.1-1-1.6-1.6c-0.5-0.5-1-1-1.5-1.5c-0.9-1-1.8-1.9-2.5-2.7
							c-0.7-0.9-1.3-1.6-1.7-2.2C-1566.6-1216.2-1567.1-1216.9-1567.1-1216.9z"/>
					</g>
					<g>
						<path class="bike53" d="M-1580.1-1211.7c0,0,0.6,0.7,1.7,1.8c0.5,0.6,1.2,1.3,1.9,2.1c0.8,0.8,1.6,1.6,2.6,2.6
							c0.5,0.5,0.9,1,1.5,1.5c0.5,0.5,1.1,1,1.7,1.5c0.6,0.5,1.2,1,1.8,1.6c0.6,0.5,1.3,1,1.9,1.5c0.7,0.5,1.3,1.1,2,1.6
							c0.7,0.5,1.4,1,2.1,1.5c0.7,0.5,1.4,1,2.2,1.5c0.7,0.5,1.5,1,2.2,1.5c1.5,1,3,1.9,4.5,2.8c1.5,0.9,3,1.7,4.5,2.5
							c1.5,0.7,2.9,1.5,4.3,2.2c1.4,0.7,2.7,1.3,3.9,1.8c2.5,1.1,4.5,1.9,6,2.5c1.5,0.6,2.3,0.9,2.3,0.9s-0.9-0.2-2.4-0.7
							c-0.8-0.2-1.7-0.5-2.7-0.9c-1-0.4-2.2-0.8-3.4-1.3c-1.3-0.5-2.6-1.1-4-1.7c-1.4-0.6-2.9-1.3-4.4-2.1c-1.5-0.8-3-1.6-4.6-2.5
							c-1.5-0.9-3.1-1.8-4.6-2.8c-0.8-0.5-1.5-1-2.2-1.5c-0.7-0.5-1.4-1.1-2.2-1.6c-0.7-0.5-1.4-1.1-2.1-1.6c-0.7-0.6-1.3-1.1-2-1.6
							c-0.6-0.5-1.3-1.1-1.9-1.6c-0.6-0.6-1.2-1.1-1.7-1.6c-0.6-0.5-1.1-1-1.6-1.6c-0.5-0.5-1-1-1.5-1.5c-0.9-1-1.8-1.9-2.5-2.7
							c-0.7-0.9-1.3-1.6-1.7-2.2C-1579.5-1211-1580.1-1211.7-1580.1-1211.7z"/>
					</g>
				</g>
			</g>
		</g>
		<g>
			<g>
				<path class="bike42" d="M283.6,27.1c-2.2-5.8-7.7-13.4-12.7-12.8c-9.5,2.2,0.6,20.2,10.7,24.6c10.1,4.4,10.8,15.6,10.8,15.6
					l5.7-10C289.7,36.3,284.5,29.6,283.6,27.1z"/>
				<path class="bike43" d="M283.6,27.1c-2.2-5.8-7.7-13.4-12.7-12.8c-9.5,2.2,0.6,20.2,10.7,24.6c10.1,4.4,10.8,15.6,10.8,15.6
					l5.7-10C289.7,36.3,284.5,29.6,283.6,27.1z"/>
			</g>
			<path class="bike7" d="M292.4,33.4C278,72.6,246.1,102.9,253,122c10,27.6,61.3,38.2,72.3,37.3c2.6,8.2,2.9,17.5,2.9,17.5
				c6,1.8,18.3-8.1,22-7.7c-2.5-6.1-2.7-28.3-2.7-28.3l25.4-26.7l11.2-33L292.4,33.4z"/>
			<path class="bike8" d="M345.1,170.9c2.2-1.1,4-1.8,5.1-1.7c-2-5-2.6-20.9-2.7-26.4c-4.9,3.5-10.7,6.4-17.5,8.3
				c-13.5,3.9-30.7,1.9-45.1-1.3c16.6,7.1,34.4,10,40.3,9.5C333.5,159.6,344.4,162.4,345.1,170.9z"/>
			
				<radialGradient id="SVGID_11_" cx="389.9662" cy="118.7979" r="12.2529" gradientTransform="matrix(0.9424 0.3343 -0.1786 0.5034 -28.5169 -71.684)" gradientUnits="userSpaceOnUse">
				<stop  offset="0" style="bikeop-color:#C24552;stop-opacity:0.4"/>
				<stop  offset="1" style="bikeop-color:#C24552;stop-opacity:0"/>
			</radialGradient>
			<path class="bike54" d="M327.5,125.1c-0.9,2.3-6.3,2.4-12.2,0.2c-5.8-2.2-9.9-5.9-9-8.2c0.9-2.3,6.3-2.4,12.2-0.2
				C324.4,119.1,328.4,122.8,327.5,125.1z"/>
			
				<radialGradient id="SVGID_12_" cx="347.2963" cy="130.6538" r="12.2528" gradientTransform="matrix(0.9424 0.3343 -0.1786 0.5034 -26.0591 -82.6565)" gradientUnits="userSpaceOnUse">
				<stop  offset="0" style="bikeop-color:#C24552;stop-opacity:0.4"/>
				<stop  offset="1" style="bikeop-color:#C24552;stop-opacity:0"/>
			</radialGradient>
			<path class="bike55" d="M287.7,105.9c-0.9,2.3-6.3,2.4-12.2,0.2s-9.9-5.9-9-8.2c0.9-2.3,6.3-2.4,12.2-0.2
				C284.5,99.9,288.5,103.5,287.7,105.9z"/>
			<path class="bike17" d="M321.3,112.6c3.1,1.8,7.5-5.1,6.4-7c-1.1-1.9-4.1,0.5-5.7,2.3C320.5,109.6,320.4,112.1,321.3,112.6z"/>
			<path class="bike17" d="M287.3,97c3.1,1.8,7.5-5.1,6.4-7c-1.1-1.9-4.1,0.5-5.7,2.3C286.5,94.1,286.5,96.6,287.3,97z"/>
			<path class="bike20" d="M285.2,119.1c-7.2,10.1,1.9,22.9,12.4,5.8"/>
			<g>
				<path class="bike46" d="M292.4,33.4c-2,5.3-4.2,10.5-6.7,15.5c5.7-0.3,12.7,0.8,12.7,0.8l4.9-10.7L292.4,33.4z"/>
				<path class="bike47" d="M298.9,40.3c-16.9,15.5-4.6,45.2,7.7,50.4c4.4-2,3.5-17.5,3.5-21.3c-2.9,13.1,10.1,33.6,16.1,33.7
					c6,0.1,4.1-12.1,3.1-13.3c2.6,9.5,11.7,20.7,17.5,3.7c2.6,13.2,19.3,18.7,19.3,18.7l2.5,14.7c14.2-9.7,24.4-36.1,26.5-41.8
					L298.9,40.3z"/>
				<path class="bike32" d="M290.4,38.4c-0.3,0.7-0.6,1.5-0.9,2.2c-0.2,0.5-0.5,1.1-0.7,1.6c-0.3,0.6-0.6,1.3-0.8,1.9
					c-0.2,0.5-0.5,1.1-0.7,1.6c0,0.1-0.1,0.2-0.1,0.3c0.7,1,1.3,2,2.1,3c1.2,0,2.4,0.1,3.5,0.2c-0.4,1-0.8,2-1.1,3.1
					c14.3,17.9,37.1,32.7,55.1,41.6c0-0.1,0-0.1,0.1-0.2c0,0.1,0,0.1,0,0.2c9.9,4.9,18.4,8,23.3,9c-0.2,4.3-1.3,9.3-3.2,14.4
					l1.7,9.8c14.2-9.7,24.4-36.1,26.5-41.8l-93.2-43.5l1.2-2.7l-10.8-5.6c-0.4,1.2-0.9,2.4-1.4,3.6
					C290.8,37.5,290.6,37.9,290.4,38.4z"/>
			</g>
			<path class="bike46" d="M330.1,88.7c15.4,2.7,16.9,15.4,10.6,18.5C342.3,103.5,342.6,92.6,330.1,88.7z"/>
			<path class="bike46" d="M305.2,75.4c-13.4-8.1-22.9,0.5-20.2,7C286.2,78.5,293.1,70.1,305.2,75.4z"/>
			<path class="bike7" d="M348,112c17.1-8.4,30.6,4.7,20.8,22.1c-9.8,17.4-34.2,12.5-31.3-2.4C340.7,114.8,348,112,348,112z"/>
			<path class="bike48" d="M353.4,125.9c3-2.4,6.5-2.8,8.6-2.6c-3.2-6.1-15.6-1.9-13.5,11.5c0.6-2.8,1.5-4.9,2.7-6.6
				c1,0.9,2.8,2.8,3.6,4.9C354.8,133,355.7,129,353.4,125.9z"/>
			<g>
				<path class="bike42" d="M270.9,14.3c5-0.6,10.5,7,12.7,12.8c2.7,7.1,41.3,49.5,87.4,62.7c28.6,8.2,43.3,6.4,48,5.6
					c-7.4-10.7-16.8-21.2-23.2-27.2l-80.3-47C296.5,17.5,274.6,13.2,270.9,14.3z"/>
				<path class="bike42" d="M315.4,21.2c22.4,29.4,60.8,45.6,80.3,47c8.1-15.8,10.6-37.4,10.6-37.4c-17-14.3-56-29.8-73.1-27.8
					C323.3,9.1,315.4,21.2,315.4,21.2z"/>
				<path class="bike17" d="M323.2,11.5c-4.7,5-7.8,9.7-7.8,9.7c22.4,29.4,60.8,45.6,80.3,47c2.9-5.6,5.1-12,6.7-17.9
					C381.1,42.9,342.1,25.8,323.2,11.5z"/>
			</g>
		</g>
	</g>
	<g>
		<path class="bike16" d="M160.2,285.5c-10.9-5.4-61-15.3-90.2-12.9l-4.5,2.9l28.9,19l63.3-1.2l4.7-3.8L160.2,285.5z"/>
		<path class="bike49" d="M160.2,285.5c-10.9-5.4-61-15.3-90.2-12.9l-4.5,2.9l28.9,19l63.3-1.2l4.7-3.8L160.2,285.5z"/>
		<path class="bike49" d="M160.2,291.9c-10.9-5.4-61-15.3-90.2-12.9l-4.5,2.9l28.9,19l63.3-1.2l4.7-3.8L160.2,291.9z"/>
		<g>
			<path class="bike50" d="M114.9,313.8c-7.9-21.1-40.4-64.3-43.4-70.6l6.5-1.8c14.2,20.2,33.9,57.7,39.6,75
				C123.5,333.7,114.9,313.8,114.9,313.8z"/>
			<path class="bike50" d="M120.9,323.5c-1.2-22.5,11.2-75.1,11.5-82.1l-6.7,0.9c-4.9,24.2-7.9,66.4-6.3,84.6
				C121.1,345.2,120.9,323.5,120.9,323.5z"/>
			<path class="bike50" d="M131.3,328c3.7-22.3,27.3-70.8,29.1-77.6l-6.8-0.6c-10.1,22.5-22.2,63.1-24.5,81.2
				C126.7,349.2,131.3,328,131.3,328z"/>
			<path class="bike50" d="M115.9,342.8c3.7-22.3,27.3-70.8,29.1-77.6l-6.8-0.6c-10.1,22.5-22.2,63.1-24.5,81.2
				C111.3,364,115.9,342.8,115.9,342.8z"/>
			<path class="bike50" d="M120.3,318.1c-9.6-20.4-17.9-73.8-20.3-80.3l-5.9,3.4c4.5,24.2,17.7,64.5,26.1,80.7
				C128.7,338.1,120.3,318.1,120.3,318.1z"/>
			<path class="bike51" d="M102,285.2c-5.6-18.7-22.9-19.9-32.6-18.4C72.7,276,83.3,289.6,102,285.2z"/>
			<path class="bike51" d="M122.3,291.7c19.3-2.3,23.5-19.1,23.7-28.8C136.4,264.5,121.2,272.6,122.3,291.7z"/>
			<path class="bike51" d="M112,283c13.4-6.7,12-20,9.6-27.1C115.1,259.6,106.2,269.4,112,283z"/>
			<path class="bike51" d="M99.3,279.4c8.5-12.4,0.9-23.4-4.7-28.4C90.7,257.4,87.7,270.3,99.3,279.4z"/>
			<g>
				<path class="bike52" d="M79.6,249.5c-7,7.5-25.8,7.9-31.2-8.5c-6.3-19.1,21.1-30.1,30.7-12.5C84.5,238.3,82.6,246.3,79.6,249.5z"
					/>
				<g>
					<path class="bike52" d="M-1834.3-2247.7c0,0,0.1-0.1,0.3-0.4c0.2-0.2,0.6-0.6,1.1-0.9c0.6-0.3,1.4-0.6,2.3-0.6
						c1,0,2.1,0.4,3.1,1.1c1,0.8,1.9,2,2.1,3.6c0.3,1.6-0.2,3.4-1.2,4.8c-0.5,0.7-1.1,1.4-1.7,2l-0.2,0.2l-0.1,0.1l-0.1,0.1
						l-0.1,0.1l-0.5,0.4c-0.4,0.3-0.8,0.6-1.3,0.8c-1.7,1-4.2,1.3-6.3,0.5c-2.2-0.9-3.9-2.8-4.8-5c-0.9-2.2-0.9-4.8-0.2-7.2
						c0.4-1.2,0.9-2.3,1.6-3.3c0.7-1,1.5-2,2.4-2.8c0.5-0.4,0.9-0.8,1.4-1.2c0.5-0.3,0.9-0.7,1.5-1c0.6-0.4,1.2-0.6,1.8-0.8
						c0.6-0.2,1.2-0.4,1.9-0.5c1.3-0.3,2.6-0.3,3.8-0.2c1.3,0.1,2.5,0.4,3.7,0.9c2.4,0.9,4.6,2.3,6.5,4.1c1.8,1.8,3.3,4.1,4,6.7
						c0.7,2.6,0.5,5.5-0.8,8c-0.3,0.6-0.7,1.2-1,1.8c-0.4,0.5-0.8,1.1-1.3,1.6c-0.9,0.9-1.7,1.9-2.8,2.8c-1,0.9-2.2,1.6-3.4,2.3
						c-1.2,0.6-2.4,1.2-3.8,1.5c-2.6,0.8-5.4,0.9-8.1,0.3c-2.7-0.5-5.2-1.9-7.1-3.7c-2-1.9-3.3-4.3-3.9-6.8
						c-0.1-0.6-0.3-1.2-0.4-1.9c0-0.3-0.1-0.6-0.1-0.9l0-1c0-1.3,0.2-2.5,0.5-3.7c1.2-4.7,3.9-8.5,7-11.1c3.2-2.6,7-4,10.4-3.9
						c1.7,0,3.2,0.3,4.6,0.8c0.7,0.2,1.3,0.5,1.9,0.8c0.6,0.3,1.1,0.6,1.6,0.9c2,1.3,3.2,2.6,4.1,3.4c0.8,0.9,1.2,1.4,1.2,1.4
						l-0.2,0.2c0,0-0.5-0.4-1.4-1.2c-0.9-0.7-2.3-1.9-4.3-2.8c-0.5-0.2-1-0.4-1.6-0.7c-0.6-0.2-1.1-0.4-1.8-0.5
						c-1.2-0.3-2.6-0.5-4.1-0.3c-2.9,0.2-6.1,1.5-8.7,4c-1.3,1.2-2.5,2.7-3.5,4.3c-1,1.7-1.8,3.5-2.2,5.5c-0.2,1-0.3,2-0.3,3l0,0.7
						c0,0.3,0,0.6,0.1,0.8c0,0.5,0.2,1,0.3,1.5c0.5,2,1.5,3.8,3,5.4c1.5,1.5,3.4,2.6,5.6,3.1c2.2,0.5,4.5,0.5,6.8-0.1
						c1.2-0.2,2.2-0.7,3.3-1.1c1-0.6,2.1-1.1,3.1-1.9c1-0.6,1.9-1.5,2.9-2.4c0.4-0.3,0.8-0.9,1.2-1.3c0.3-0.5,0.7-1,1-1.5
						c1.2-2.1,1.6-4.6,1.1-7c-0.3-1.2-0.7-2.3-1.3-3.4c-0.6-1.1-1.4-2-2.2-2.9c-0.8-0.9-1.9-1.6-2.9-2.3c-1-0.7-2.1-1.2-3.3-1.5
						c-1.1-0.4-2.3-0.6-3.5-0.6c-1.2,0-2.3,0.1-3.4,0.4c-0.5,0.1-1,0.4-1.6,0.6c-0.5,0.3-1,0.5-1.4,0.8c-0.2,0.2-0.4,0.3-0.6,0.5
						l-0.7,0.6c-0.4,0.3-0.8,0.8-1.1,1.2c-1.4,1.6-2.5,3.5-3,5.4c-0.5,1.9-0.5,3.8,0.2,5.5c0.6,1.7,1.8,3,3.2,3.6
						c1.4,0.6,3,0.5,4.4-0.2c0.4-0.2,0.6-0.3,1-0.5l0.5-0.4l0.1-0.1c0,0,0.1-0.1,0,0l0.1,0l0.2-0.2c0.6-0.5,1.1-1,1.5-1.5
						c0.9-1.1,1.2-2.3,1.2-3.5c-0.1-1.1-0.6-2.1-1.3-2.8c-0.7-0.7-1.6-1.1-2.3-1.2c-0.8-0.1-1.5,0-2,0.2c-1,0.4-1.5,1-1.5,1
						L-1834.3-2247.7z"/>
				</g>
			</g>
			<g>
				<path class="bike52" d="M109.4,246.2c-4.8-11.4,4.1-32.3,24.9-30.1c24.1,2.6,22.6,38.2-1.5,40
					C119.3,257.2,111.4,251.1,109.4,246.2z"/>
				<g>
					<path class="bike52" d="M-1751.7-2247.8c0,0,0.1,0.2,0.2,0.5c0.1,0.3,0.4,0.9,0.4,1.7c0.1,0.8,0,1.8-0.5,2.8
						c-0.5,1-1.4,2.1-2.8,2.8c-1.3,0.7-3.1,1-4.9,0.5c-1.8-0.5-3.5-1.8-4.6-3.6c-0.6-0.9-1-1.9-1.3-2.9l-0.1-0.4l0-0.1l0-0.1l0-0.2
						c-0.1-0.2-0.1-0.5-0.2-0.7c-0.1-0.5-0.2-1.2-0.2-1.8c-0.2-2.3,0.6-5.1,2.6-7c2-1.9,4.8-2.8,7.6-2.7c2.8,0.1,5.6,1.4,7.8,3.3
						c1.1,1,2,2.1,2.9,3.3c0.8,1.2,1.4,2.6,1.9,4c0.2,0.7,0.5,1.4,0.6,2.2l0.2,1c0.1,0.3,0.1,0.8,0.2,1.2c0.1,0.8,0.1,1.5,0.1,2.3
						c-0.1,0.8-0.1,1.5-0.3,2.3c-0.3,1.5-0.9,3-1.7,4.3c-0.8,1.3-1.7,2.6-2.8,3.7c-2.1,2.2-4.8,4-7.7,5.1c-2.9,1.1-6.2,1.6-9.3,1
						c-3.2-0.5-6.2-2.2-8.3-4.8c-0.6-0.6-1-1.3-1.4-2c-0.4-0.7-0.8-1.4-1.1-2.2l-0.5-1.1l-0.4-1.1c-0.3-0.8-0.5-1.5-0.7-2.3
						c-0.4-1.6-0.7-3.2-0.8-4.8c-0.1-1.6,0-3.3,0.2-4.9c0.5-3.2,1.7-6.3,3.7-8.9c1.9-2.6,4.6-4.7,7.5-5.9c3-1.2,6.3-1.5,9.3-0.9
						c0.4,0.1,0.8,0.2,1.1,0.3l0.6,0.1l0.6,0.2c0.3,0.1,0.6,0.2,1,0.3l1.1,0.5c1.4,0.7,2.6,1.4,3.7,2.3c2.3,1.8,4.1,3.9,5.5,6.1
						c1.4,2.2,2.5,4.6,3.1,7c1.3,4.8,0.9,9.6-0.8,13.2c-0.8,1.8-1.9,3.4-3.1,4.6c-0.5,0.7-1.2,1.2-1.8,1.7c-0.6,0.5-1.2,0.9-1.8,1.3
						c-2.3,1.5-4.4,2.3-5.8,2.8c-1.4,0.4-2.2,0.7-2.2,0.7l-0.1-0.3c0,0,0.7-0.3,2-0.9c1.3-0.7,3.2-1.6,5.3-3.2
						c0.5-0.4,1-0.9,1.6-1.4c0.5-0.5,1.1-1,1.5-1.7c1-1.2,1.9-2.7,2.5-4.4c1.2-3.3,1.4-7.5,0-11.7c-0.6-2.1-1.7-4.2-3-6.1
						c-1.3-1.9-3-3.8-5-5.3c-1-0.8-2.1-1.4-3.2-1.9l-0.8-0.4c-0.3-0.1-0.6-0.2-1-0.3l-0.4-0.1l-0.5-0.1c-0.3-0.1-0.6-0.2-0.9-0.2
						c-2.5-0.5-5.1-0.2-7.6,0.7c-2.4,0.9-4.7,2.6-6.4,4.8c-1.7,2.2-2.8,4.8-3.4,7.6c-0.3,1.4-0.4,2.9-0.3,4.3c0,1.5,0.2,2.9,0.5,4.4
						c0.2,0.7,0.3,1.5,0.5,2.2l0.3,1.1l0.4,1.1c0.2,0.7,0.6,1.3,0.9,2c0.4,0.6,0.7,1.3,1.2,1.9c1.7,2.4,4.3,4.1,7.2,4.7
						c1.5,0.3,3,0.4,4.4,0.2c1.5-0.1,3-0.5,4.4-1c1.4-0.5,2.7-1.2,4-2c1.2-0.8,2.4-1.8,3.3-2.9c1-1.1,1.8-2.3,2.4-3.6
						c0.6-1.3,1.1-2.6,1.2-4c0.1-0.7,0.1-1.4,0.2-2c-0.1-0.7-0.1-1.4-0.2-2c-0.1-0.3-0.1-0.6-0.2-1l-0.3-1c-0.2-0.6-0.5-1.2-0.7-1.8
						c-1.1-2.4-2.6-4.6-4.4-6.1c-1.8-1.6-4.1-2.5-6.3-2.6c-2.2-0.2-4.3,0.5-5.7,1.8c-1.4,1.3-2.1,3.2-2.1,5.1c0,0.5,0.1,0.9,0.1,1.4
						c0,0.3,0.1,0.5,0.1,0.8l0,0.2c0,0,0,0.1,0,0l0,0.1l0.1,0.3c0.2,0.9,0.6,1.7,1,2.5c0.8,1.5,2,2.6,3.3,3.1
						c1.3,0.5,2.7,0.3,3.9-0.1c1.1-0.5,2-1.2,2.5-2.1c0.5-0.8,0.7-1.7,0.7-2.3c0-1.4-0.4-2.1-0.3-2.1L-1751.7-2247.8z"/>
				</g>
			</g>
			<g>
				<path class="bike52" d="M148.4,257.1c-7.1-3.9-20.2-1.5-22,9.6c-1.8,11.1,5.6,14.7,10,15.7c4.4,1.1,15.7-1.1,18.6-9.9
					C158,263.6,152.7,259.5,148.4,257.1z"/>
				<g>
					<path class="bike52" d="M-1748-2213.2c0,0-0.1,0-0.2,0.2c-0.1,0.1-0.2,0.4-0.1,0.8c0.1,0.3,0.2,0.7,0.5,1.1
						c0.3,0.4,0.8,0.6,1.4,0.6c0.6,0,1.3-0.3,1.8-0.8c0.4-0.4,0.5-1.1,0.1-1.7c-0.8-1.3-2.8-2.1-4.8-1.9c-1,0.1-2.1,0.4-3.1,0.8
						c-0.3,0.1-0.5,0.2-0.8,0.4l-0.3,0.2l-0.4,0.3c-0.3,0.2-0.4,0.3-0.6,0.5c-0.2,0.2-0.4,0.4-0.5,0.6c-0.7,0.8-0.9,1.8-0.7,2.8
						c0.2,1,0.8,2.1,1.6,3c1.7,1.8,4.2,3,6.9,3.6c0.7,0.1,1.4,0.2,2,0.3l1,0l0.6,0c0.2,0,0.4,0,0.5-0.1c0.5-0.1,1.2-0.3,1.7-0.5
						c0.5-0.3,1-0.6,1.5-1c1.8-1.6,2.5-4.5,2.4-7.1c-0.1-1.3-0.4-2.6-0.8-3.9c-0.5-1.2-1.2-2.3-2-3.2c-0.9-0.9-1.8-1.5-3-2
						c-0.3-0.1-0.6-0.3-0.9-0.4c-0.3-0.1-0.6-0.2-0.9-0.3c-0.6-0.2-1.2-0.4-1.8-0.5c-2.4-0.6-4.8-0.8-6.9-0.5
						c-2.1,0.3-4.1,0.9-5.6,1.8c-1.5,0.9-2.7,2-3.4,3.1c-0.8,1-1.3,1.9-1.6,2.6c-0.3,0.6-0.5,1-0.5,1s0.1-0.4,0.3-1
						c0.1-0.3,0.2-0.8,0.4-1.2c0.2-0.5,0.4-1.1,0.8-1.6c0.7-1.2,1.7-2.5,3.3-3.7c1.5-1.2,3.6-2.1,5.9-2.6c2.3-0.5,5-0.5,7.7,0
						c0.7,0.1,1.4,0.3,2,0.5c0.3,0.1,0.7,0.2,1,0.3c0.3,0.1,0.6,0.2,1,0.4c1.4,0.5,2.9,1.4,4,2.5c2.3,2.3,3.6,5.5,3.8,8.8
						c0.1,1.6,0,3.3-0.5,5c-0.5,1.6-1.4,3.3-2.7,4.5c-0.7,0.6-1.5,1.1-2.3,1.5c-0.9,0.4-1.7,0.6-2.7,0.7c-0.3,0-0.4,0-0.6,0.1
						l-0.6,0l-0.1,0l-0.1,0l-0.2,0l-0.3,0c-0.2,0-0.4,0-0.6,0c-0.8-0.1-1.6-0.2-2.4-0.3c-3.2-0.7-6.2-2.2-8.3-4.6
						c-1-1.2-1.9-2.7-2.1-4.4c-0.1-0.8,0-1.7,0.2-2.5c0.3-0.8,0.7-1.5,1.3-2.1c0.3-0.3,0.6-0.5,0.8-0.8c0.3-0.2,0.7-0.5,0.9-0.6
						l0.4-0.2c0.2-0.1,0.3-0.2,0.5-0.2c0.3-0.2,0.6-0.3,0.9-0.4c1.2-0.5,2.5-0.7,3.8-0.7c2.5,0,4.9,1.1,5.9,3.1
						c0.2,0.5,0.4,1.1,0.2,1.6c-0.1,0.6-0.4,1-0.8,1.3c-0.8,0.5-1.5,0.7-2.3,0.7c-0.8,0-1.4-0.5-1.6-1c-0.3-0.5-0.4-0.9-0.4-1.3
						c0-0.4,0.1-0.7,0.2-0.8C-1748.1-2213.3-1748-2213.2-1748-2213.2z"/>
				</g>
			</g>
			<g>
				<path class="bike52" d="M160.6,229.1c-16.9,2.3-20.1,31.2,3.9,26.9c24-4.4,10.8-22.1,7.7-24.2C168,229,164.7,228.6,160.6,229.1z"
					/>
				<g>
					<path class="bike52" d="M-1734.7-2239.7c0,0-0.1-0.1-0.2-0.3c-0.1-0.2-0.1-0.7,0.3-1c0.8-0.6,2.3-0.8,4-0.5
						c0.9,0.2,1.8,0.5,2.8,1.1c0.2,0.2,0.4,0.3,0.7,0.5c0.1,0.1,0.2,0.2,0.3,0.3c0.1,0.1,0.2,0.3,0.3,0.4c0.4,0.6,0.4,1.4,0.2,2.1
						c-0.4,1.4-1.5,2.5-2.8,3.2c-1.3,0.7-2.9,1.1-4.5,1.1c-1.7-0.1-3.3-0.5-4.9-1.5c-0.2-0.1-0.3-0.2-0.5-0.3
						c-0.2-0.2-0.4-0.3-0.6-0.5l-0.5-0.6l-0.4-0.6c-0.5-0.9-0.7-1.9-0.8-2.9c0-2,0.8-3.9,1.8-5.5c1.1-1.6,2.6-3,4.3-4.1
						c1.7-1.1,3.8-1.8,5.9-1.9c0.5,0,1.1,0,1.6,0l0.2,0l0.1,0c0.1,0,0,0,0.1,0l0,0l0.4,0.1c0.2,0.1,0.4,0.1,0.7,0.1
						c1.2,0.3,2.1,0.7,3.1,1.2c3.7,2.2,6.6,5.5,8.2,9.5c0.8,2,1.3,4.2,1.1,6.5c-0.1,1.1-0.4,2.3-0.9,3.3c-0.5,1-1.1,2-1.9,2.8
						c-1.6,1.6-3.5,2.6-5.5,3.3c-1.9,0.6-3.9,1-5.8,1.2l-0.7,0.1c-0.3,0-0.5,0-0.7,0c-0.5,0-0.9,0-1.4,0c-0.9,0-1.9,0-2.9-0.1
						c-1.9-0.2-3.7-0.6-5.4-1.4c-1.7-0.7-3.2-1.9-4.3-3.3c-1.1-1.4-1.7-3-2-4.6c-0.5-3.2,0.1-6,1-8.3c0.9-2.3,2.1-4.1,3.3-5.4
						c1.2-1.3,2.4-2.1,3.2-2.5c0.4-0.2,0.8-0.3,1-0.4c0.2-0.1,0.3-0.1,0.3-0.1s-0.1,0.1-0.3,0.1c-0.2,0.1-0.5,0.2-0.9,0.5
						c-0.8,0.5-1.8,1.4-2.8,2.7c-1,1.3-2,3.2-2.7,5.4c-0.7,2.2-1,4.9-0.4,7.6c0.3,1.3,0.9,2.6,1.9,3.7c0.9,1.1,2.2,1.9,3.6,2.5
						c1.4,0.6,3,0.9,4.7,1c0.4,0,0.8,0,1.3,0c0.4,0,0.8,0,1.3,0c0.5,0,0.9-0.1,1.4-0.1c0.2,0,0.5,0,0.6,0l0.7-0.1
						c1.8-0.2,3.5-0.6,5.2-1.2c1.6-0.6,3.2-1.5,4.3-2.6c1.2-1.2,1.8-2.7,2-4.4c0.1-1.7-0.2-3.4-0.9-5.1c-1.4-3.3-3.9-6.3-6.9-8.1
						c-0.7-0.4-1.6-0.8-2.3-1c-0.2-0.1-0.5-0.1-0.7-0.2l-0.4-0.1l-0.2,0c-0.4-0.1-0.8-0.1-1.2-0.1c-1.6,0.1-3.3,0.6-4.7,1.4
						c-1.4,0.8-2.7,2-3.6,3.3c-0.9,1.3-1.6,2.8-1.6,4.1c-0.3,2.8,2.9,4.5,5.5,4.8c1.3,0.1,2.6-0.1,3.7-0.7c1.1-0.5,2-1.3,2.3-2.2
						c0.2-0.5,0.1-0.9,0-1.3c0-0.1-0.1-0.2-0.1-0.3c-0.1-0.1-0.2-0.2-0.3-0.3c-0.2-0.2-0.4-0.3-0.5-0.5c-0.8-0.6-1.6-1-2.4-1.3
						c-1.6-0.5-3-0.4-3.8,0.1c-0.4,0.3-0.4,0.6-0.4,0.9C-1734.7-2239.8-1734.7-2239.7-1734.7-2239.7z"/>
				</g>
			</g>
			<g>
				<path class="bike52" d="M95.1,214.7c-18.5,2.6-22,34.2,4.2,29.4c26.3-4.8,11.8-24.2,8.4-26.5C103.1,214.6,99.6,214.1,95.1,214.7z"
					/>
				<g>
					<path class="bike52" d="M-1800.6-2253.2c0,0-0.1-0.1-0.2-0.4c-0.1-0.2-0.1-0.7,0.3-1.1c0.8-0.7,2.5-0.9,4.4-0.5
						c1,0.2,2,0.6,3,1.3c0.2,0.2,0.5,0.3,0.8,0.6c0.1,0.1,0.2,0.2,0.3,0.3c0.1,0.2,0.3,0.3,0.3,0.5c0.4,0.6,0.5,1.5,0.3,2.3
						c-0.4,1.5-1.6,2.7-3,3.5c-1.4,0.8-3.1,1.2-4.9,1.2c-1.8-0.1-3.6-0.6-5.3-1.6c-0.2-0.1-0.4-0.2-0.6-0.4
						c-0.2-0.2-0.4-0.4-0.6-0.6l-0.5-0.6l-0.4-0.7c-0.5-1-0.8-2.1-0.8-3.2c0-2.2,0.8-4.2,2-6c1.2-1.8,2.8-3.3,4.7-4.5
						c1.9-1.2,4.1-2,6.4-2.1c0.6,0,1.2,0,1.8,0l0.2,0l0.1,0c0.1,0,0,0,0.1,0l0,0l0.4,0.1c0.3,0.1,0.5,0.1,0.8,0.2
						c1.3,0.3,2.3,0.8,3.3,1.4c4,2.3,7.1,6,9,10.3c0.9,2.2,1.4,4.6,1.2,7c-0.1,1.2-0.4,2.4-0.9,3.6c-0.5,1.1-1.2,2.2-2.1,3
						c-1.7,1.8-3.8,2.8-5.9,3.5c-2.1,0.7-4.3,1.1-6.3,1.3l-0.8,0.1c-0.3,0-0.5,0-0.8,0c-0.5,0-1,0-1.5,0.1c-1,0-2.1,0-3.1-0.1
						c-2-0.2-4-0.7-5.9-1.5c-1.8-0.8-3.5-2-4.7-3.5c-1.2-1.5-1.9-3.3-2.2-5c-0.6-3.4,0.1-6.6,1.1-9.1c1-2.5,2.3-4.5,3.6-5.9
						c1.3-1.4,2.6-2.3,3.5-2.7c0.5-0.2,0.8-0.4,1.1-0.4c0.2-0.1,0.4-0.1,0.4-0.1s-0.1,0.1-0.4,0.2c-0.2,0.1-0.6,0.3-1,0.5
						c-0.9,0.5-2,1.5-3.1,3c-1.1,1.5-2.2,3.5-3,5.9c-0.7,2.4-1.1,5.4-0.5,8.3c0.4,1.5,1,2.9,2.1,4.1c1,1.2,2.4,2.1,4,2.7
						c1.6,0.6,3.4,1,5.2,1.1c0.5,0.1,0.9,0,1.4,0c0.5,0,0.9,0,1.4,0c0.5,0,1-0.1,1.5-0.1c0.2,0,0.6,0,0.7-0.1l0.7-0.1
						c1.9-0.2,3.9-0.6,5.7-1.3c1.8-0.7,3.5-1.6,4.8-2.9c1.3-1.3,2-3,2.2-4.9c0.1-1.8-0.3-3.8-1-5.6c-1.5-3.7-4.3-7-7.6-8.9
						c-0.8-0.5-1.7-0.9-2.5-1.1c-0.2-0.1-0.5-0.1-0.7-0.2l-0.4-0.1l-0.3,0c-0.5-0.1-0.9-0.1-1.4-0.1c-1.8,0.1-3.6,0.7-5.2,1.6
						c-1.6,0.9-3,2.2-4,3.6c-1,1.4-1.7,3.1-1.8,4.6c-0.1,1.6,0.6,2.9,1.9,3.7c1.2,0.9,2.8,1.4,4.2,1.6c1.5,0.1,2.9-0.2,4.1-0.7
						c1.2-0.6,2.2-1.5,2.6-2.5c0.2-0.5,0.2-1,0-1.5c0-0.1-0.1-0.2-0.2-0.3c-0.1-0.1-0.2-0.2-0.3-0.3c-0.2-0.2-0.4-0.4-0.6-0.5
						c-0.8-0.7-1.8-1.1-2.6-1.4c-1.7-0.5-3.3-0.5-4.1,0.1c-0.4,0.3-0.4,0.7-0.4,0.9C-1800.6-2253.3-1800.6-2253.2-1800.6-2253.2z"/>
				</g>
			</g>
			<g>
				<path class="bike52" d="M114.8,254.6c-5.8-19.6-41.6-14-30.9,10.2C91.3,281.5,122.1,279.2,114.8,254.6z"/>
				<g>
					<path class="bike52" d="M-1798.7-2216.8c0,0-0.4,0-1.2-0.1c-0.4,0-0.8-0.1-1.4-0.2c-0.5-0.1-1.2-0.2-1.9-0.5
						c-1.4-0.4-3-1.2-4.5-2.6c-0.8-0.7-1.4-1.7-1.9-2.8c-0.1-0.3-0.2-0.6-0.3-0.9l-0.1-0.5l0-0.5c0-0.3-0.1-0.6-0.1-1
						c0-0.3,0.1-0.7,0.1-1c0-0.2,0-0.3,0.1-0.5l0.1-0.5c0.1-0.3,0.2-0.7,0.3-1c0.2-0.3,0.3-0.6,0.5-0.9c0.2-0.3,0.3-0.6,0.5-0.9
						c0.4-0.6,0.8-1.2,1.3-1.7c0.2-0.3,0.5-0.5,0.8-0.8c0.3-0.2,0.6-0.5,0.8-0.7c0.3-0.2,0.5-0.4,0.9-0.7c0.3-0.2,0.6-0.4,0.9-0.6
						c0.4-0.2,0.7-0.4,1.1-0.6c0.4-0.2,0.7-0.3,1.1-0.5c1.5-0.6,3.1-0.9,4.7-1c3.2-0.2,6.6,0.3,9.7,1.7c1.6,0.7,3.1,1.6,4.4,2.8
						c1.3,1.2,2.5,2.7,3.2,4.4c0.7,1.7,0.9,3.7,0.6,5.5c-0.3,1.8-1,3.5-2.2,5c-1.1,1.5-2.8,2.6-4.5,3.1c-1.7,0.6-3.5,0.6-5.1,0.4
						c-1.7-0.2-3.2-0.7-4.6-1.4c-1.4-0.7-2.7-1.6-3.7-2.8c-1-1.1-1.9-2.5-2.2-4c-0.2-0.7-0.2-1.5-0.1-2.2c0.1-0.4,0.1-0.7,0.2-1.1
						l0.1-0.4c0.1-0.2,0.1-0.3,0.2-0.5c0.6-1.3,1.8-2.4,3.1-2.6c1.3-0.2,2.5,0.2,3.4,0.7c0.9,0.5,1.7,1.3,2.1,2.1
						c0.5,0.8,0.6,1.8,0.3,2.5c-0.2,0.8-0.7,1.3-1.2,1.6c-0.4,0.4-0.9,0.6-1.2,0.7c-0.3,0.2-0.6,0.2-0.8,0.3
						c-0.2,0.1-0.3,0.1-0.3,0.1s0.1,0,0.3-0.1c0.2-0.1,0.4-0.2,0.7-0.4c0.3-0.2,0.7-0.5,1.1-0.9c0.4-0.4,0.7-0.9,0.8-1.5
						c0.2-1.2-0.8-2.7-2.4-3.5c-0.8-0.4-1.8-0.5-2.6-0.3c-0.8,0.2-1.5,0.9-1.8,1.8c-0.8,2-0.1,4.3,1.7,6c0.9,0.9,2,1.6,3.2,2.1
						c1.2,0.5,2.5,0.9,3.9,1c1.3,0.1,2.7,0,3.9-0.4c1.2-0.4,2.3-1.2,3.1-2.3c0.8-1,1.3-2.4,1.5-3.7c0.2-1.3,0.1-2.7-0.4-3.9
						c-1-2.5-3.4-4.5-6-5.7c-2.6-1.2-5.6-1.8-8.4-1.7c-1.4,0.1-2.7,0.3-4,0.7c-0.3,0.1-0.6,0.2-0.9,0.3l-0.8,0.4
						c-0.3,0.2-0.6,0.4-0.9,0.5l-0.7,0.6c-0.3,0.2-0.5,0.4-0.8,0.6c-0.2,0.2-0.5,0.4-0.7,0.6c-0.5,0.4-0.8,0.9-1.2,1.4
						c-0.2,0.2-0.4,0.5-0.5,0.7c-0.1,0.2-0.3,0.5-0.4,0.7c-0.1,0.3-0.2,0.5-0.3,0.8l-0.1,0.4c0,0.1,0,0.3-0.1,0.4
						c0,0.3-0.1,0.5-0.1,0.8c0,0.3,0,0.5,0,0.8l0,0.4l0.1,0.4c0,0.2,0.1,0.5,0.1,0.7c0.3,0.9,0.8,1.8,1.4,2.5
						c1.2,1.4,2.6,2.3,3.9,2.8c0.6,0.3,1.2,0.5,1.7,0.7c0.5,0.2,1,0.3,1.3,0.4C-1799.1-2216.9-1798.7-2216.8-1798.7-2216.8z"/>
				</g>
			</g>
		</g>
		<path class="bike53" d="M62.2,284.2c17,23.2,12.7,67.5,12.7,67.5c13.8,9.6,56.2,14.6,73.1,6.9c1.8-18.3,10.7-57.8,14.8-60.5
			c0,0-53.9-3-55.2-3.1C106.5,294.9,62.2,284.2,62.2,284.2z"/>
		<path class="bike49" d="M162.9,298.1c0,0-53.9-3-55.2-3.1c-1.3-0.1-45.5-10.8-45.5-10.8c4.2,5.7,7.1,12.7,9.1,19.9
			c25.5,11.6,65.4,14,75.2,10.8c-4.3,13.7-7.5,33.4-7.1,46.2c3.3-0.6,6.2-1.4,8.7-2.5C149.9,340.2,158.8,300.8,162.9,298.1z"/>
		<path class="bike16" d="M70,272.5c-11.3,13.2,91.3,27.4,90.2,12.9c8.4,2.8,11.6,14.9-4.8,18.7c-16.2,3.8-76.1,3.4-93.3-17.4
			C55.4,278.7,62.4,271.6,70,272.5z"/>
		<g>
			<g>
				<path class="bike53" d="M-1808.3-2136.7c0,0,0.8-0.3,2.3-0.9c0.7-0.3,1.6-0.6,2.7-1c1-0.4,2.1-0.9,3.4-1.5
					c0.6-0.3,1.3-0.5,1.9-0.9c0.6-0.3,1.3-0.7,2-1c0.7-0.3,1.4-0.7,2.1-1.1c0.7-0.4,1.4-0.8,2.1-1.2c0.7-0.4,1.5-0.8,2.2-1.3
					c0.7-0.5,1.5-0.9,2.2-1.4c0.7-0.5,1.5-0.9,2.2-1.4c0.7-0.5,1.5-1,2.2-1.6c1.5-1,2.9-2.1,4.3-3.2c1.4-1.1,2.7-2.2,4-3.3
					c1.2-1.1,2.5-2.1,3.6-3.2c1.1-1,2.2-2,3.1-3c1.9-1.9,3.5-3.5,4.5-4.6c1.1-1.2,1.6-1.8,1.6-1.8s-0.5,0.7-1.5,2
					c-0.5,0.6-1.1,1.3-1.8,2.2c-0.7,0.8-1.5,1.8-2.5,2.7c-0.9,1-1.9,2-3,3.1c-1.1,1.1-2.3,2.2-3.6,3.3c-1.3,1.1-2.6,2.2-4,3.3
					c-1.4,1.1-2.8,2.2-4.3,3.2c-0.7,0.5-1.5,1-2.2,1.5c-0.7,0.5-1.5,1-2.3,1.4c-0.8,0.5-1.5,0.9-2.2,1.4c-0.8,0.4-1.5,0.8-2.3,1.2
					c-0.7,0.4-1.5,0.8-2.2,1.2c-0.7,0.3-1.5,0.7-2.2,1c-0.7,0.3-1.4,0.6-2,0.9c-0.7,0.3-1.3,0.5-2,0.8c-1.3,0.5-2.4,0.9-3.4,1.3
					c-1,0.3-2,0.6-2.7,0.8C-1807.4-2136.9-1808.3-2136.7-1808.3-2136.7z"/>
			</g>
			<g>
				<path class="bike53" d="M-1797.1-2135c0,0,0.8-0.3,2.3-0.9c0.7-0.3,1.6-0.6,2.7-1c1-0.4,2.1-0.9,3.4-1.5c0.6-0.3,1.3-0.5,1.9-0.8
					c0.6-0.3,1.3-0.7,2-1c0.7-0.3,1.4-0.7,2.1-1.1c0.7-0.4,1.4-0.8,2.1-1.2c0.7-0.4,1.5-0.8,2.2-1.3c0.7-0.5,1.5-0.9,2.2-1.4
					c0.7-0.5,1.5-0.9,2.2-1.4c0.7-0.5,1.5-1,2.2-1.6c1.5-1,2.9-2.1,4.3-3.2c1.4-1.1,2.7-2.2,4-3.3c1.2-1.1,2.5-2.1,3.6-3.2
					c1.1-1,2.2-2,3.1-3c1.9-1.9,3.5-3.5,4.5-4.6c1.1-1.2,1.6-1.8,1.6-1.8s-0.5,0.7-1.5,2c-0.5,0.6-1.1,1.3-1.8,2.2
					c-0.7,0.8-1.5,1.8-2.5,2.7c-0.9,1-1.9,2-3,3.1c-1.1,1.1-2.3,2.2-3.6,3.3c-1.3,1.1-2.6,2.2-4,3.3c-1.4,1.1-2.8,2.2-4.3,3.2
					c-0.7,0.5-1.5,1-2.2,1.5c-0.7,0.5-1.5,1-2.3,1.4c-0.8,0.5-1.5,0.9-2.2,1.4c-0.8,0.4-1.5,0.8-2.3,1.2c-0.7,0.4-1.5,0.8-2.2,1.2
					c-0.7,0.3-1.5,0.7-2.2,1c-0.7,0.3-1.4,0.6-2,0.9c-0.7,0.3-1.3,0.5-2,0.8c-1.3,0.5-2.4,0.9-3.4,1.3c-1,0.3-2,0.6-2.7,0.8
					C-1796.2-2135.2-1797.1-2135-1797.1-2135z"/>
			</g>
			<g>
				<path class="bike53" d="M-1793.5-2126.6c0,0,0.8-0.3,2.3-0.9c0.7-0.3,1.6-0.6,2.7-1c1-0.4,2.1-0.9,3.4-1.5
					c0.6-0.3,1.3-0.5,1.9-0.9c0.6-0.3,1.3-0.7,2-1c0.7-0.3,1.4-0.7,2.1-1.1c0.7-0.4,1.4-0.8,2.1-1.2c0.7-0.4,1.5-0.8,2.2-1.3
					c0.7-0.5,1.5-0.9,2.2-1.4c0.7-0.5,1.5-0.9,2.2-1.4c0.7-0.5,1.5-1,2.2-1.6c1.5-1,2.9-2.1,4.3-3.2c1.4-1.1,2.7-2.2,4-3.3
					c1.2-1.1,2.5-2.1,3.6-3.2c1.1-1,2.2-2,3.1-3c1.9-1.9,3.5-3.5,4.5-4.6c1.1-1.2,1.6-1.8,1.6-1.8s-0.5,0.7-1.5,2
					c-0.5,0.6-1.1,1.3-1.8,2.2c-0.7,0.8-1.5,1.8-2.5,2.7c-0.9,1-1.9,2-3,3.1c-1.1,1.1-2.3,2.2-3.6,3.3c-1.3,1.1-2.6,2.2-4,3.3
					c-1.4,1.1-2.8,2.2-4.3,3.2c-0.7,0.5-1.5,1-2.2,1.5c-0.7,0.5-1.5,1-2.3,1.4c-0.8,0.5-1.5,0.9-2.2,1.4c-0.8,0.4-1.5,0.8-2.3,1.2
					c-0.7,0.4-1.5,0.8-2.2,1.2c-0.7,0.3-1.5,0.7-2.2,1c-0.7,0.3-1.4,0.6-2,0.9c-0.7,0.3-1.3,0.5-2,0.8c-1.3,0.5-2.4,0.9-3.4,1.3
					c-1,0.3-2,0.6-2.7,0.8C-1792.7-2126.8-1793.5-2126.6-1793.5-2126.6z"/>
			</g>
			<g>
				<path class="bike53" d="M-1792.6-2171.7c0,0,0.6,0.7,1.7,1.8c0.5,0.6,1.2,1.3,1.9,2.1c0.8,0.8,1.6,1.6,2.6,2.6
					c0.5,0.5,0.9,1,1.5,1.5c0.5,0.5,1.1,1,1.7,1.5c0.6,0.5,1.2,1,1.8,1.6c0.6,0.5,1.3,1,1.9,1.5c0.7,0.5,1.3,1.1,2,1.6
					c0.7,0.5,1.4,1,2.1,1.5c0.7,0.5,1.4,1,2.2,1.5c0.7,0.5,1.5,1,2.2,1.5c1.5,1,3,1.9,4.5,2.8c1.5,0.9,3,1.7,4.5,2.5
					c1.5,0.7,2.9,1.5,4.3,2.2c1.4,0.7,2.7,1.3,3.9,1.8c2.5,1.1,4.5,1.9,6,2.5c1.5,0.6,2.3,0.9,2.3,0.9s-0.9-0.2-2.4-0.7
					c-0.8-0.2-1.7-0.5-2.7-0.9c-1-0.4-2.2-0.8-3.4-1.3c-1.3-0.5-2.6-1.1-4-1.7c-1.4-0.6-2.9-1.3-4.4-2.1c-1.5-0.8-3-1.6-4.6-2.5
					c-1.5-0.9-3.1-1.8-4.6-2.8c-0.8-0.5-1.5-1-2.2-1.5c-0.7-0.5-1.4-1.1-2.2-1.6c-0.7-0.5-1.4-1.1-2.1-1.6c-0.7-0.6-1.3-1.1-2-1.6
					c-0.6-0.5-1.3-1.1-1.9-1.6c-0.6-0.6-1.2-1.1-1.7-1.6c-0.6-0.5-1.1-1-1.6-1.6c-0.5-0.5-1-1-1.5-1.5c-0.9-1-1.8-1.9-2.5-2.7
					c-0.7-0.9-1.3-1.6-1.7-2.2C-1792-2171-1792.6-2171.7-1792.6-2171.7z"/>
			</g>
			<g>
				<path class="bike53" d="M-1801.1-2165.9c0,0,0.6,0.7,1.7,1.8c0.5,0.6,1.2,1.3,1.9,2.1c0.8,0.8,1.6,1.6,2.6,2.6
					c0.5,0.5,0.9,1,1.5,1.5c0.5,0.5,1.1,1,1.7,1.5c0.6,0.5,1.2,1,1.8,1.6c0.6,0.5,1.3,1,1.9,1.5c0.7,0.5,1.3,1.1,2,1.6
					c0.7,0.5,1.4,1,2.1,1.5c0.7,0.5,1.4,1,2.2,1.5c0.7,0.5,1.5,1,2.2,1.5c1.5,1,3,1.9,4.5,2.8c1.5,0.9,3,1.7,4.5,2.5
					c1.5,0.7,2.9,1.5,4.3,2.2c1.4,0.7,2.7,1.3,3.9,1.8c2.5,1.1,4.5,1.9,6,2.5c1.5,0.6,2.3,0.9,2.3,0.9s-0.9-0.2-2.4-0.7
					c-0.8-0.2-1.7-0.5-2.7-0.9c-1-0.4-2.2-0.8-3.4-1.3c-1.3-0.5-2.6-1.1-4-1.7c-1.4-0.6-2.9-1.3-4.4-2.1c-1.5-0.8-3-1.6-4.6-2.5
					c-1.5-0.9-3.1-1.8-4.6-2.8c-0.8-0.5-1.5-1-2.2-1.5c-0.7-0.5-1.4-1.1-2.2-1.6c-0.7-0.5-1.4-1.1-2.1-1.6c-0.7-0.6-1.3-1.1-2-1.6
					c-0.6-0.5-1.3-1.1-1.9-1.6c-0.6-0.6-1.2-1.1-1.7-1.6c-0.6-0.5-1.1-1-1.6-1.6c-0.5-0.5-1-1-1.5-1.5c-0.9-1-1.8-1.9-2.5-2.7
					c-0.7-0.9-1.3-1.6-1.7-2.2C-1800.6-2165.2-1801.1-2165.9-1801.1-2165.9z"/>
			</g>
			<g>
				<path class="bike53" d="M-1814.1-2160.7c0,0,0.6,0.7,1.7,1.8c0.5,0.6,1.2,1.3,1.9,2.1c0.8,0.8,1.6,1.6,2.6,2.6
					c0.5,0.5,0.9,1,1.5,1.5c0.5,0.5,1.1,1,1.7,1.5c0.6,0.5,1.2,1,1.8,1.6c0.6,0.5,1.3,1,1.9,1.5c0.7,0.5,1.3,1.1,2,1.6
					c0.7,0.5,1.4,1,2.1,1.5c0.7,0.5,1.4,1,2.2,1.5c0.7,0.5,1.5,1,2.2,1.5c1.5,1,3,1.9,4.5,2.8c1.5,0.9,3,1.7,4.5,2.5
					c1.5,0.7,2.9,1.5,4.3,2.2c1.4,0.7,2.7,1.3,3.9,1.8c2.5,1.1,4.5,1.9,6,2.5c1.5,0.6,2.3,0.9,2.3,0.9s-0.9-0.2-2.4-0.7
					c-0.8-0.2-1.7-0.5-2.7-0.9c-1-0.4-2.2-0.8-3.4-1.3c-1.3-0.5-2.6-1.1-4-1.7c-1.4-0.6-2.9-1.3-4.4-2.1c-1.5-0.8-3-1.6-4.6-2.5
					c-1.5-0.9-3.1-1.8-4.6-2.8c-0.8-0.5-1.5-1-2.2-1.5c-0.7-0.5-1.4-1.1-2.2-1.6c-0.7-0.5-1.4-1.1-2.1-1.6c-0.7-0.6-1.3-1.1-2-1.6
					c-0.6-0.5-1.3-1.1-1.9-1.6c-0.6-0.6-1.2-1.1-1.7-1.6c-0.6-0.5-1.1-1-1.6-1.6c-0.5-0.5-1-1-1.5-1.5c-0.9-1-1.8-1.9-2.5-2.7
					c-0.7-0.9-1.3-1.6-1.7-2.2C-1813.5-2160-1814.1-2160.7-1814.1-2160.7z"/>
			</g>
		</g>
	</g>
</g>
</svg>
